<svg width="609" height="96" viewBox="0 0 609 96" fill="none" xmlns="http://www.w3.org/2000/svg">
<path d="M72.75 50.125L71.3589 49.5639L71.3565 49.57L72.75 50.125ZM52.9375 75.9375L51.9965 74.7694L51.9912 74.7737L52.9375 75.9375ZM38.75 85.375L38.0441 84.0515L38.75 85.375ZM8.1875 94.5625H6.6875V96.1549L8.27708 96.0598L8.1875 94.5625ZM8.1875 24.5L7.68648 23.0861L6.6875 23.4402V24.5H8.1875ZM21.0625 19.9375H22.5625V17.8145L20.5615 18.5236L21.0625 19.9375ZM21.0625 88H19.5625V89.9983L21.4813 89.4403L21.0625 88ZM37.1875 80.625L38.0121 81.878L38.0146 81.8763L37.1875 80.625ZM58.125 54.3125L56.7165 53.7964L56.7131 53.8059L58.125 54.3125ZM59.75 26.6875L58.3016 27.0775L58.3046 27.0885L58.3077 27.0996L59.75 26.6875ZM55.625 18.1875L54.4226 19.0842L54.4311 19.0957L54.4399 19.107L55.625 18.1875ZM48.625 12.375L47.9385 13.7087L47.9463 13.7127L47.9542 13.7166L48.625 12.375ZM28.8125 11.25L28.4931 9.7844L28.4891 9.78527L28.8125 11.25ZM19.375 14.25L19.9452 15.6374L19.9546 15.6335L19.375 14.25ZM10.5625 18.75L9.77424 17.4738L9.7658 17.4791L10.5625 18.75ZM2.8125 24.5L1.70407 25.5106L2.69547 26.598L3.80166 25.6276L2.8125 24.5ZM0.875 22.375L-0.227205 21.3576L-1.16059 22.3687L-0.233434 23.3856L0.875 22.375ZM9.75 14.75L10.6062 15.9817L10.6162 15.9746L9.75 14.75ZM20.6875 8.4375L21.317 9.79906L21.329 9.7934L20.6875 8.4375ZM32.625 4.125L32.9958 5.57845L33.0027 5.57668L33.0097 5.57484L32.625 4.125ZM58.125 4.8125L57.5756 6.20827L58.125 4.8125ZM67.875 11.375L66.7665 12.3857L66.7747 12.3944L67.875 11.375ZM73.75 21.5625L72.324 22.0278L72.3262 22.0346L72.3285 22.0413L73.75 21.5625ZM74.25 34.75C74.25 39.8473 73.2877 44.782 71.3589 49.5639L74.1411 50.6861C76.2123 45.5513 77.25 40.236 77.25 34.75H74.25ZM71.3565 49.57C69.4525 54.3502 66.8579 58.8524 63.5666 63.0783L65.9334 64.9217C69.3921 60.4809 72.1309 55.7331 74.1435 50.68L71.3565 49.57ZM63.5666 63.0783C60.2662 67.3158 56.4111 71.2131 51.9965 74.7694L53.8785 77.1056C58.4639 73.4119 62.4838 69.3509 65.9334 64.9217L63.5666 63.0783ZM51.9912 74.7737C47.6066 78.3387 42.9578 81.4308 38.0441 84.0515L39.4559 86.6985C44.5422 83.9859 49.3517 80.7863 53.8838 77.1013L51.9912 74.7737ZM38.0441 84.0515C33.1282 86.6733 28.0944 88.76 22.9419 90.3139L23.8081 93.1861C29.1556 91.5734 34.3718 89.41 39.4559 86.6985L38.0441 84.0515ZM22.9419 90.3139C17.7902 91.8676 12.8432 92.7813 8.09792 93.0652L8.27708 96.0598C13.2818 95.7604 18.4598 94.7991 23.8081 93.1861L22.9419 90.3139ZM9.6875 94.5625V24.5H6.6875V94.5625H9.6875ZM8.68852 25.9139L21.5635 21.3514L20.5615 18.5236L7.68648 23.0861L8.68852 25.9139ZM19.5625 19.9375V88H22.5625V19.9375H19.5625ZM21.4813 89.4403C27.4932 87.6922 33.006 85.1726 38.0121 81.878L36.3629 79.372C31.619 82.4941 26.3818 84.8911 20.6437 86.5597L21.4813 89.4403ZM38.0146 81.8763C43.0558 78.544 47.4022 74.6065 51.0452 70.0634L48.7048 68.1866C45.2645 72.4769 41.1525 76.206 36.3604 79.3737L38.0146 81.8763ZM51.0452 70.0634C54.6933 65.514 57.5238 60.4299 59.5369 54.8191L56.7131 53.8059C54.8095 59.1118 52.14 63.9027 48.7048 68.1866L51.0452 70.0634ZM59.5334 54.8286C61.598 49.194 62.625 43.1849 62.625 36.8125H59.625C59.625 42.8568 58.652 48.5144 56.7166 53.7964L59.5334 54.8286ZM62.625 36.8125C62.625 33.14 62.1495 29.6257 61.1923 26.2754L58.3077 27.0996C59.1838 30.1659 59.625 33.4017 59.625 36.8125H62.625ZM61.1984 26.2975C60.2769 22.8747 58.8189 19.8571 56.8101 17.268L54.4399 19.107C56.1811 21.3513 57.4731 24.0003 58.3016 27.0775L61.1984 26.2975ZM56.8274 17.2908C54.8494 14.6384 52.3315 12.5512 49.2958 11.0334L47.9542 13.7166C50.5851 15.0321 52.734 16.82 54.4226 19.0842L56.8274 17.2908ZM49.3115 11.0413C46.2226 9.45144 42.6016 8.6875 38.5 8.6875V11.6875C42.2317 11.6875 45.3607 12.3819 47.9385 13.7087L49.3115 11.0413ZM38.5 8.6875C35.1804 8.6875 31.8442 9.05404 28.4931 9.78441L29.1319 12.7156C32.2808 12.0293 35.4029 11.6875 38.5 11.6875V8.6875ZM28.4891 9.78527C25.1916 10.5133 21.9601 11.5407 18.7954 12.8665L19.9546 15.6335C22.9566 14.3759 26.0167 13.4034 29.1359 12.7147L28.4891 9.78527ZM18.8048 12.8626C15.6866 14.144 12.6762 15.6814 9.77426 17.4738L11.3507 20.0262C14.1154 18.3186 16.9801 16.856 19.9452 15.6374L18.8048 12.8626ZM9.7658 17.4791C6.90915 19.2698 4.26108 21.234 1.82334 23.3724L3.80166 25.6276C6.11392 23.5993 8.63252 21.7302 11.3592 20.0209L9.7658 17.4791ZM3.92093 23.4894L1.98343 21.3644L-0.233434 23.3856L1.70407 25.5106L3.92093 23.4894ZM1.97721 23.3924C4.39445 20.7737 7.26777 18.3022 10.6062 15.9817L8.89384 13.5183C5.39889 15.9478 2.35555 18.5596 -0.227205 21.3576L1.97721 23.3924ZM10.6162 15.9746C13.9568 13.6117 17.5232 11.5531 21.317 9.79901L20.058 7.07599C16.1018 8.90521 12.3765 11.0549 8.8838 13.5254L10.6162 15.9746ZM21.329 9.7934C25.1186 8.00048 29.0072 6.59595 32.9958 5.57845L32.2542 2.67155C28.0761 3.73739 24.0064 5.20786 20.046 7.0816L21.329 9.7934ZM33.0097 5.57484C36.9801 4.52145 40.809 4 44.5 4V1C40.5244 1 36.4365 1.56188 32.2403 2.67516L33.0097 5.57484ZM44.5 4C49.5201 4 53.8687 4.74918 57.5756 6.20827L58.6744 3.41673C54.5479 1.79249 49.8133 1 44.5 1V4ZM57.5756 6.20827C61.3001 7.6743 64.3523 9.73776 66.7666 12.3856L68.9834 10.3644C66.231 7.34558 62.7832 5.03404 58.6744 3.41673L57.5756 6.20827ZM66.7747 12.3944C69.2411 15.0566 71.0942 18.2592 72.324 22.0278L75.176 21.0972C73.8224 16.9491 71.7589 13.36 68.9753 10.3556L66.7747 12.3944ZM72.3285 22.0413C73.6024 25.8233 74.25 30.0544 74.25 34.75H77.25C77.25 29.7789 76.5643 25.2184 75.1715 21.0837L72.3285 22.0413ZM130.562 85.5625L131.924 86.1911L132.331 85.3095L131.694 84.5773L130.562 85.5625ZM128.688 88.625L127.506 87.7005L128.688 88.625ZM126.062 91.1875L125.162 89.9875L125.15 89.9967L125.138 90.0062L126.062 91.1875ZM122.875 93L123.396 94.4066L123.41 94.4015L123.423 94.3961L122.875 93ZM112.188 90.9375L111.001 91.8547L111.012 91.8697L111.024 91.8844L112.188 90.9375ZM110.062 82.375H111.562L108.737 81.6732L110.062 82.375ZM107.5 86.625L106.258 85.7845L106.249 85.7972L106.241 85.8101L107.5 86.625ZM104.312 90.4375L103.29 89.3397L103.281 89.3486L103.271 89.3577L104.312 90.4375ZM83.0625 88.5L81.8859 89.4304L81.8912 89.4371L81.8966 89.4438L83.0625 88.5ZM80.6875 63.875L79.2745 63.3715L79.2712 63.3809L80.6875 63.875ZM86.0625 54.1875L84.9046 53.2339L84.8962 53.2442L86.0625 54.1875ZM94.375 47.3125L95.0933 48.6294L95.0992 48.6261L94.375 47.3125ZM114.438 46.5L113.799 47.8572L113.823 47.8684L113.847 47.8787L114.438 46.5ZM118.375 49L117.376 50.1189L117.386 50.1276L117.396 50.1361L118.375 49ZM121.312 52.8125L121.897 54.1941L123.369 53.5715L122.654 52.1417L121.312 52.8125ZM112 56.75L110.732 57.551L111.412 58.6274L112.584 58.1316L112 56.75ZM110.25 54.5L109.098 55.4603L109.127 55.4951L109.158 55.528L110.25 54.5ZM108.125 52.5625L107.247 53.7785L107.262 53.7897L107.278 53.8005L108.125 52.5625ZM97.125 52.75L96.2021 51.5675L96.195 51.5731L96.188 51.5787L97.125 52.75ZM92.8125 57.6875L91.5359 56.8998L91.5298 56.9098L91.5238 56.9198L92.8125 57.6875ZM89.625 75.3125L88.1407 75.529L88.1433 75.5466L88.1463 75.5642L89.625 75.3125ZM91.3125 80.875L89.9458 81.4933L91.3125 80.875ZM94.4375 85.3125L93.4128 86.4079L94.4375 85.3125ZM103.312 86.125L104.077 87.4154L104.095 87.4051L104.112 87.3943L103.312 86.125ZM106.188 83.4375L107.399 84.3225L107.406 84.3117L107.414 84.3007L106.188 83.4375ZM108.125 79.625L106.719 79.1027L106.715 79.1142L106.711 79.1258L108.125 79.625ZM109.312 75.1875L107.84 74.9012L107.836 74.921L107.833 74.9409L109.312 75.1875ZM109.875 70.75L108.38 70.6254L108.379 70.6449L108.377 70.6644L109.875 70.75ZM110.062 62.4375L109.565 61.0224L108.562 61.3749V62.4375H110.062ZM121.438 58.4375H122.938V56.32L120.94 57.0224L121.438 58.4375ZM122.062 86.125L120.77 86.8855L120.78 86.9029L120.791 86.92L122.062 86.125ZM126.812 86L127.816 87.1149L127.819 87.1123L126.812 86ZM128.875 83.625L130.006 82.6398L128.683 81.1204L127.607 82.824L128.875 83.625ZM129.201 84.9339C128.75 85.9099 128.186 86.8317 127.506 87.7005L129.869 89.5495C130.689 88.5016 131.375 87.3818 131.924 86.1911L129.201 84.9339ZM127.506 87.7005C126.84 88.5523 126.06 89.3144 125.162 89.9875L126.963 92.3875C128.065 91.5606 129.035 90.6144 129.869 89.5495L127.506 87.7005ZM125.138 90.0062C124.297 90.6641 123.362 91.197 122.327 91.6039L123.423 94.3961C124.721 93.8863 125.911 93.2109 126.987 92.3688L125.138 90.0062ZM122.354 91.5934C121.403 91.9457 120.392 92.125 119.312 92.125V95.125C120.733 95.125 122.097 94.8876 123.396 94.4066L122.354 91.5934ZM119.312 92.125C116.272 92.125 114.418 91.3022 113.351 89.9906L111.024 91.8844C112.873 94.1561 115.77 95.125 119.312 95.125V92.125ZM113.374 90.0203C112.221 88.528 111.562 86.408 111.562 83.5H108.562C108.562 86.842 109.32 89.6803 111.001 91.8547L113.374 90.0203ZM111.562 83.5V82.375H108.562V83.5H111.562ZM108.737 81.6732C108.014 83.0391 107.188 84.4096 106.258 85.7845L108.742 87.4655C109.729 86.0071 110.611 84.5442 111.388 83.0768L108.737 81.6732ZM106.241 85.8101C105.39 87.1254 104.406 88.3007 103.29 89.3397L105.335 91.5353C106.635 90.3243 107.777 88.958 108.759 87.4399L106.241 85.8101ZM103.271 89.3577C102.218 90.3731 101.036 91.1989 99.7196 91.8382L101.03 94.5368C102.631 93.7595 104.073 92.7519 105.354 91.5173L103.271 89.3577ZM99.7196 91.8382C98.4862 92.4373 97.0888 92.75 95.5 92.75V95.75C97.4946 95.75 99.3471 95.3543 101.03 94.5368L99.7196 91.8382ZM95.5 92.75C92.9867 92.75 90.827 92.2677 88.9833 91.3459L87.6417 94.0291C89.9647 95.1907 92.5967 95.75 95.5 95.75V92.75ZM88.9833 91.3459C87.0847 90.3966 85.5056 89.134 84.2284 87.5562L81.8966 89.4438C83.4527 91.366 85.3736 92.8951 87.6417 94.0291L88.9833 91.3459ZM84.2391 87.5696C82.9501 85.9394 81.9711 84.0296 81.3124 81.8213L78.4376 82.6787C79.1956 85.2204 80.3416 87.4773 81.8859 89.4304L84.2391 87.5696ZM81.3124 81.8213C80.6486 79.5956 80.3125 77.22 80.3125 74.6875H77.3125C77.3125 77.4884 77.6847 80.1544 78.4376 82.6787L81.3124 81.8213ZM80.3125 74.6875C80.3125 71.2385 80.9066 67.8011 82.1038 64.3691L79.2712 63.3809C77.9684 67.1156 77.3125 70.8865 77.3125 74.6875H80.3125ZM82.1005 64.3785C83.3385 60.904 85.0494 57.8253 87.2288 55.1308L84.8962 53.2442C82.4922 56.2164 80.6198 59.596 79.2745 63.3715L82.1005 64.3785ZM87.2204 55.1411C89.4323 52.4552 92.0541 50.2871 95.0933 48.6293L93.6567 45.9957C90.2792 47.8379 87.3594 50.2532 84.9046 53.2339L87.2204 55.1411ZM95.0992 48.6261C98.1126 46.9648 101.465 46.125 105.188 46.125V43.125C100.993 43.125 97.1374 44.0768 93.6508 45.9989L95.0992 48.6261ZM105.188 46.125C106.678 46.125 108.171 46.2622 109.666 46.5377L110.209 43.5873C108.538 43.2794 106.864 43.125 105.188 43.125V46.125ZM109.666 46.5377C111.126 46.8066 112.502 47.247 113.799 47.8572L115.076 45.1428C113.54 44.4196 111.916 43.9017 110.209 43.5873L109.666 46.5377ZM113.847 47.8787C115.158 48.4407 116.332 49.1869 117.376 50.1189L119.374 47.8811C118.084 46.7297 116.634 45.8093 115.028 45.1213L113.847 47.8787ZM117.396 50.1361C118.446 51.0416 119.305 52.1516 119.971 53.4833L122.654 52.1417C121.82 50.4734 120.721 49.0417 119.354 47.8639L117.396 50.1361ZM120.728 51.4309L111.416 55.3684L112.584 58.1316L121.897 54.1941L120.728 51.4309ZM113.268 55.949C112.715 55.0731 112.072 54.2475 111.342 53.472L109.158 55.528C109.761 56.1692 110.285 56.8435 110.732 57.551L113.268 55.949ZM111.402 53.5397C110.69 52.6854 109.88 51.9456 108.972 51.3245L107.278 53.8005C107.954 54.2627 108.56 54.8146 109.098 55.4603L111.402 53.5397ZM109.003 51.3465C108.146 50.7272 107.217 50.2276 106.221 49.8483L105.154 52.6517C105.908 52.939 106.604 53.3144 107.247 53.7785L109.003 51.3465ZM106.221 49.8483C105.172 49.4484 104.074 49.25 102.938 49.25V52.25C103.718 52.25 104.453 52.3849 105.154 52.6517L106.221 49.8483ZM102.938 49.25C100.436 49.25 98.174 50.0285 96.2021 51.5675L98.0479 53.9325C99.4927 52.8049 101.105 52.25 102.938 52.25V49.25ZM96.188 51.5787C94.3768 53.0276 92.8275 54.8066 91.5359 56.8998L94.0891 58.4752C95.2141 56.6518 96.5398 55.1391 98.062 53.9213L96.188 51.5787ZM91.5238 56.9198C90.2897 58.9914 89.3421 61.1956 88.6817 63.529L91.5683 64.346C92.1579 62.2628 93.002 60.3003 94.1012 58.4552L91.5238 56.9198ZM88.6817 63.529C88.0291 65.835 87.6875 67.9753 87.6875 69.9375H90.6875C90.6875 68.3163 90.9709 66.4567 91.5683 64.346L88.6817 63.529ZM87.6875 69.9375C87.6875 71.6099 87.8413 73.4758 88.1407 75.529L91.1093 75.096C90.8254 73.1492 90.6875 71.4318 90.6875 69.9375H87.6875ZM88.1463 75.5642C88.5004 77.6447 89.0995 79.6224 89.9458 81.4933L92.6792 80.2567C91.9422 78.6276 91.4163 76.897 91.1037 75.0608L88.1463 75.5642ZM89.9458 81.4933C90.8119 83.4077 91.9648 85.0534 93.4128 86.4079L95.4622 84.2171C94.3268 83.155 93.3964 81.8423 92.6792 80.2567L89.9458 81.4933ZM93.4128 86.4079C95.0131 87.905 97.0179 88.625 99.3125 88.625V85.625C97.6904 85.625 96.4453 85.1367 95.4622 84.2171L93.4128 86.4079ZM99.3125 88.625C101.075 88.625 102.682 88.2421 104.077 87.4154L102.548 84.8346C101.693 85.3412 100.634 85.625 99.3125 85.625V88.625ZM104.112 87.3943C105.399 86.5841 106.496 85.5574 107.399 84.3225L104.976 82.5525C104.295 83.4843 103.476 84.2492 102.513 84.8557L104.112 87.3943ZM107.414 84.3007C108.292 83.0538 108.998 81.6584 109.539 80.1242L106.711 79.1258C106.252 80.4249 105.667 81.5712 104.961 82.5743L107.414 84.3007ZM109.531 80.1473C110.105 78.6017 110.526 77.0303 110.792 75.4341L107.833 74.9409C107.599 76.3447 107.228 77.7317 106.719 79.1027L109.531 80.1473ZM110.785 75.4738C111.089 73.9106 111.285 72.3643 111.373 70.8356L108.377 70.6644C108.298 72.0523 108.119 73.4644 107.84 74.9012L110.785 75.4738ZM111.37 70.8746C111.497 69.3443 111.562 67.9681 111.562 66.75H108.562C108.562 67.8652 108.503 69.1557 108.38 70.6254L111.37 70.8746ZM111.562 66.75V62.4375H108.562V66.75H111.562ZM110.56 63.8526L121.935 59.8526L120.94 57.0224L109.565 61.0224L110.56 63.8526ZM119.938 58.4375V83.8125H122.938V58.4375H119.938ZM119.938 83.8125C119.938 84.9093 120.215 85.9433 120.77 86.8855L123.355 85.3645C123.076 84.89 122.938 84.3823 122.938 83.8125H119.938ZM120.791 86.92C121.516 88.0811 122.677 88.625 124 88.625V85.625C123.573 85.625 123.442 85.5022 123.334 85.33L120.791 86.92ZM124 88.625C125.442 88.625 126.73 88.0923 127.816 87.1149L125.809 84.8851C125.228 85.4077 124.641 85.625 124 85.625V88.625ZM127.819 87.1123C128.77 86.2518 129.554 85.3582 130.143 84.426L127.607 82.824C127.196 83.4752 126.605 84.1649 125.806 84.8877L127.819 87.1123ZM127.744 84.6102L129.431 86.5477L131.694 84.5773L130.006 82.6398L127.744 84.6102ZM187.688 85.6875L189.045 86.3249L189.477 85.406L188.784 84.664L187.688 85.6875ZM180.625 92.75L181.211 94.1309L181.216 94.1287L180.625 92.75ZM176.438 93.75V95.25H176.482L176.526 95.2474L176.438 93.75ZM171.812 92.875L171.142 94.2166L171.151 94.2213L171.16 94.2258L171.812 92.875ZM169 90.5625L167.794 91.4541L169 90.5625ZM167.5 87.3125L166.031 87.6164L166.036 87.6405L166.042 87.6645L167.5 87.3125ZM167.125 63.6875H168.625L165.661 63.3621L167.125 63.6875ZM165.812 69.0625L164.361 68.685L164.357 68.6987L164.354 68.7124L165.812 69.0625ZM163.938 75.625L165.361 76.0993L165.363 76.0916L163.938 75.625ZM161.312 82.375L162.679 82.9938L162.683 82.9842L161.312 82.375ZM157.812 88.3125L156.619 87.4034L156.612 87.4125L156.606 87.4217L157.812 88.3125ZM153.375 92.625L154.207 93.8731L154.214 93.8683L153.375 92.625ZM143.812 93.25L144.645 92.0019L144.638 91.9977L144.632 91.9936L143.812 93.25ZM141.625 90.5625L140.223 91.0945L140.234 91.1242L140.246 91.1534L141.625 90.5625ZM140.75 86.3125L139.252 86.3874L139.253 86.4075L139.254 86.4275L140.75 86.3125ZM138.125 50.4375L138.037 51.9349L138.081 51.9375H138.125V50.4375ZM133.188 53.8125L132.073 54.8159L133.344 56.2282L134.422 54.6641L133.188 53.8125ZM131.5 51.9375L130.147 51.2893L129.713 52.1947L130.385 52.9409L131.5 51.9375ZM134.812 47.3125L135.795 48.446L135.806 48.4368L135.816 48.4274L134.812 47.3125ZM138.5 44.875L139.074 46.2611L139.086 46.2559L138.5 44.875ZM142.75 43.875V42.375H142.707L142.664 42.3774L142.75 43.875ZM147.312 44.75L146.642 46.0916L146.651 46.0963L146.66 46.1008L147.312 44.75ZM150.125 47.0625L148.894 47.9191L148.915 47.9499L148.938 47.9797L150.125 47.0625ZM151.562 50.25L150.094 50.5539L150.099 50.578L150.104 50.602L151.562 50.25ZM155.125 82.8125L155.97 84.0519L155.982 84.0439L155.125 82.8125ZM158.25 79.25L157.002 78.4179L156.997 78.425L158.25 79.25ZM161.75 72.375L163.137 72.9461L163.171 72.8625L163.196 72.7753L161.75 72.375ZM163.938 64L165.394 64.3588L165.397 64.3463L163.938 64ZM165.688 55.875L164.22 55.5649L164.218 55.5749L164.216 55.5848L165.688 55.875ZM167.125 47.3125L166.632 45.8958L165.748 46.2031L165.636 47.132L167.125 47.3125ZM178.625 43.3125H180.125V41.2026L178.132 41.8958L178.625 43.3125ZM181.062 87.25L180.974 88.7474L181.018 88.75H181.062V87.25ZM183.375 86.4375L182.585 85.1621L182.571 85.1708L182.558 85.1798L183.375 86.4375ZM185.938 83.8125L187.034 82.789L185.762 81.4256L184.703 82.9609L185.938 83.8125ZM186.33 85.0501C185.434 86.9579 184.427 88.3213 183.349 89.2257L185.276 91.5243C186.781 90.2621 188.024 88.5004 189.045 86.3249L186.33 85.0501ZM183.349 89.2257C182.135 90.2437 181.03 90.9445 180.034 91.3713L181.216 94.1287C182.553 93.5555 183.907 92.673 185.276 91.5243L183.349 89.2257ZM180.039 91.3691C178.814 91.889 177.586 92.1799 176.349 92.2526L176.526 95.2474C178.122 95.1535 179.686 94.7777 181.211 94.1309L180.039 91.3691ZM176.438 92.25C174.704 92.25 173.405 91.9783 172.465 91.5242L171.16 94.2258C172.636 94.9383 174.421 95.25 176.438 95.25V92.25ZM172.483 91.5334C171.508 91.0456 170.761 90.4216 170.206 89.6709L167.794 91.4541C168.656 92.62 169.784 93.5378 171.142 94.2166L172.483 91.5334ZM170.206 89.6709C169.622 88.8807 169.205 87.9825 168.958 86.9605L166.042 87.6645C166.379 89.0591 166.961 90.3276 167.794 91.4541L170.206 89.6709ZM168.969 87.0086C168.74 85.9015 168.625 84.7742 168.625 83.625H165.625C165.625 84.9758 165.76 86.3068 166.031 87.6164L168.969 87.0086ZM168.625 83.625V63.6875H165.625V83.625H168.625ZM165.661 63.3621C165.332 64.8393 164.9 66.6127 164.361 68.685L167.264 69.44C167.809 67.3456 168.251 65.5357 168.589 64.0129L165.661 63.3621ZM164.354 68.7124C163.864 70.752 163.251 72.9005 162.512 75.1584L165.363 76.0916C166.124 73.7662 166.761 71.5397 167.271 69.4126L164.354 68.7124ZM162.514 75.1507C161.78 77.3532 160.923 79.5582 159.942 81.7658L162.683 82.9842C163.702 80.6918 164.595 78.3968 165.361 76.0993L162.514 75.1507ZM159.946 81.7562C158.988 83.8719 157.878 85.752 156.619 87.4034L159.006 89.2216C160.414 87.373 161.637 85.2948 162.679 82.9938L159.946 81.7562ZM156.606 87.4217C155.407 89.0454 154.05 90.3599 152.536 91.3817L154.214 93.8683C156.034 92.6401 157.634 91.0796 159.019 89.2033L156.606 87.4217ZM152.543 91.3769C151.176 92.2883 149.635 92.75 147.875 92.75V95.75C150.199 95.75 152.324 95.1284 154.207 93.8731L152.543 91.3769ZM147.875 92.75C146.343 92.75 145.315 92.4486 144.645 92.0019L142.98 94.4981C144.31 95.3847 145.99 95.75 147.875 95.75V92.75ZM144.632 91.9936C143.948 91.5478 143.4 90.897 143.004 89.9716L140.246 91.1534C140.85 92.5613 141.76 93.7022 142.993 94.5064L144.632 91.9936ZM143.027 90.0305C142.631 88.9856 142.362 87.7151 142.246 86.1975L139.254 86.4275C139.388 88.1599 139.702 89.7227 140.223 91.0945L143.027 90.0305ZM142.248 86.2376C142.166 84.6002 142.125 82.7922 142.125 80.8125H139.125C139.125 82.8328 139.167 84.6915 139.252 86.3874L142.248 86.2376ZM142.125 80.8125V53.6875H139.125V80.8125H142.125ZM142.125 53.6875C142.125 52.4678 141.845 51.3123 141.117 50.3858L138.758 52.2392C138.947 52.4794 139.125 52.9072 139.125 53.6875H142.125ZM141.117 50.3858C140.371 49.4359 139.329 48.9375 138.125 48.9375V51.9375C138.421 51.9375 138.588 52.0225 138.758 52.2392L141.117 50.3858ZM138.213 48.9401C137.086 48.8738 135.985 49.2778 134.96 49.9121L136.54 52.4629C137.265 52.0138 137.747 51.9179 138.037 51.9349L138.213 48.9401ZM134.96 49.9121C133.851 50.5988 132.857 51.6493 131.953 52.9609L134.422 54.6641C135.184 53.559 135.899 52.8595 136.54 52.4629L134.96 49.9121ZM134.302 52.8091L132.615 50.9341L130.385 52.9409L132.073 54.8159L134.302 52.8091ZM132.853 52.5857C133.751 50.7114 134.744 49.3572 135.795 48.446L133.83 46.179C132.381 47.4345 131.166 49.1636 130.147 51.2893L132.853 52.5857ZM135.816 48.4274C136.974 47.3856 138.061 46.6801 139.074 46.261L137.926 43.489C136.523 44.0699 135.151 44.9894 133.809 46.1976L135.816 48.4274ZM139.086 46.2559C140.306 45.7384 141.553 45.4458 142.836 45.3726L142.664 42.3774C141.03 42.4708 139.444 42.845 137.914 43.4941L139.086 46.2559ZM142.75 45.375C144.487 45.375 145.754 45.6479 146.642 46.0916L147.983 43.4084C146.538 42.6855 144.763 42.375 142.75 42.375V45.375ZM146.66 46.1008C147.671 46.5889 148.395 47.2025 148.894 47.9191L151.356 46.2059C150.522 45.0059 149.37 44.0777 147.965 43.3992L146.66 46.1008ZM148.938 47.9797C149.498 48.7043 149.887 49.5539 150.094 50.5539L153.031 49.9461C152.738 48.5294 152.169 47.254 151.312 46.1453L148.938 47.9797ZM150.104 50.602C150.368 51.6944 150.5 52.8054 150.5 53.9375H153.5C153.5 52.5696 153.34 51.2223 153.021 49.898L150.104 50.602ZM150.5 53.9375V79.8125H153.5V53.9375H150.5ZM150.5 79.8125C150.5 80.702 150.578 81.5191 150.772 82.2252C150.964 82.9253 151.301 83.6265 151.899 84.1389L153.851 81.8611C153.866 81.8735 153.765 81.7934 153.665 81.431C153.567 81.0746 153.5 80.548 153.5 79.8125H150.5ZM151.899 84.1389C152.488 84.6438 153.216 84.8883 154 84.8229C154.727 84.7623 155.392 84.4459 155.97 84.0518L154.28 81.5732C153.941 81.8041 153.773 81.8314 153.75 81.8333C153.748 81.8335 153.774 81.8319 153.811 81.8443C153.848 81.8564 153.862 81.8705 153.851 81.8611L151.899 84.1389ZM155.982 84.0439C157.173 83.2154 158.34 81.8411 159.503 80.075L156.997 78.425C155.91 80.0756 154.994 81.0763 154.268 81.5811L155.982 84.0439ZM159.498 80.0821C160.738 78.2219 161.948 75.8334 163.137 72.9461L160.363 71.8039C159.219 74.5833 158.095 76.7781 157.002 78.4179L159.498 80.0821ZM163.196 72.7753C163.95 70.0525 164.682 67.247 165.394 64.3588L162.481 63.6412C161.776 66.503 161.05 69.2808 160.304 71.9747L163.196 72.7753ZM165.397 64.3463C165.985 61.8662 166.573 59.1388 167.159 56.1652L164.216 55.5848C163.636 58.5278 163.056 61.2171 162.478 63.6537L165.397 64.3463ZM167.155 56.1851C167.788 53.1877 168.275 50.2902 168.614 47.493L165.636 47.132C165.308 49.8348 164.837 52.6456 164.22 55.5649L167.155 56.1851ZM167.618 48.7292L179.118 44.7292L178.132 41.8958L166.632 45.8958L167.618 48.7292ZM177.125 43.3125V83.9375H180.125V43.3125H177.125ZM177.125 83.9375C177.125 85.1572 177.405 86.3127 178.133 87.2392L180.492 85.3858C180.303 85.1456 180.125 84.7178 180.125 83.9375H177.125ZM178.133 87.2392C178.843 88.1428 179.816 88.6793 180.974 88.7474L181.151 85.7526C180.893 85.7374 180.699 85.6489 180.492 85.3858L178.133 87.2392ZM181.062 88.75C182.156 88.75 183.21 88.3338 184.192 87.6952L182.558 85.1798C181.873 85.6245 181.386 85.75 181.062 85.75V88.75ZM184.165 87.7129C185.274 87.0262 186.268 85.9757 187.172 84.6641L184.703 82.9609C183.941 84.066 183.226 84.7655 182.585 85.1621L184.165 87.7129ZM184.841 84.836L186.591 86.711L188.784 84.664L187.034 82.789L184.841 84.836ZM244.688 85.5625L246.049 86.1911L246.472 85.2748L245.783 84.5378L244.688 85.5625ZM236.938 93L237.458 94.4066L237.472 94.4015L237.486 94.3961L236.938 93ZM226.25 90.9375L225.076 91.8713L225.088 91.886L225.1 91.9004L226.25 90.9375ZM224.062 82.375H225.562L222.721 81.7042L224.062 82.375ZM218.438 90.4375L217.415 89.3397L217.406 89.3486L217.396 89.3577L218.438 90.4375ZM214.438 93.1875L213.797 91.8311L213.79 91.8346L213.782 91.8382L214.438 93.1875ZM202.125 92.625L201.412 93.9449L201.428 93.9533L201.444 93.9614L202.125 92.625ZM196.875 88.1875L195.678 89.0917L195.683 89.0982L195.688 89.1047L196.875 88.1875ZM193.625 81.6875L192.184 82.1028L192.187 82.114L192.19 82.1252L193.625 81.6875ZM194.188 63.375L192.753 62.9362L194.188 63.375ZM206.625 46.75L207.386 48.0424L207.393 48.0386L207.399 48.0347L206.625 46.75ZM224.062 45.75L223.372 47.0816L225.562 48.2174V45.75H224.062ZM224.062 7.375L223.572 5.95743L222.562 6.3067V7.375H224.062ZM235.625 3.375H237.125V1.26886L235.135 1.95743L235.625 3.375ZM236.188 86.125L234.862 86.8268L234.887 86.8744L234.916 86.92L236.188 86.125ZM240.875 86L241.878 87.1149L241.893 87.1014L241.908 87.0875L240.875 86ZM242.875 83.625L243.97 82.6003L242.644 81.1821L241.607 82.824L242.875 83.625ZM224.062 53.4375H225.562V52.8162L225.123 52.3768L224.062 53.4375ZM220.812 51.0625L220.104 52.3847L220.114 52.3898L220.123 52.3948L220.812 51.0625ZM204.125 63.625L205.591 63.9448L205.592 63.9393L204.125 63.625ZM203.812 75.4375L202.328 75.654L202.331 75.6716L202.334 75.6892L203.812 75.4375ZM205.438 81L204.059 81.5909L204.067 81.6109L204.077 81.6307L205.438 81ZM208.5 85.375L207.457 86.4535L207.476 86.4711L207.495 86.4882L208.5 85.375ZM217.312 86.125L218.077 87.4154L218.084 87.4113L218.091 87.4072L217.312 86.125ZM220.25 83.4375L221.461 84.3225L221.469 84.3117L221.477 84.3007L220.25 83.4375ZM222.188 79.625L223.602 80.1243L223.606 80.1115L222.188 79.625ZM223.312 75.1875L221.84 74.9012L221.836 74.921L221.833 74.9409L223.312 75.1875ZM223.875 70.75L222.38 70.6254L222.379 70.6449L222.377 70.6644L223.875 70.75ZM243.326 84.9339C242.882 85.8951 242.306 86.8068 241.594 87.6697L243.906 89.5803C244.777 88.5266 245.493 87.3965 246.049 86.1911L243.326 84.9339ZM241.594 87.6697C240.869 88.5463 240.072 89.3244 239.201 90.0062L241.049 92.3688C242.095 91.5506 243.047 90.6203 243.906 89.5803L241.594 87.6697ZM239.201 90.0062C238.36 90.6641 237.425 91.197 236.389 91.6039L237.486 94.3961C238.784 93.8863 239.973 93.2109 241.049 92.3688L239.201 90.0062ZM236.417 91.5934C235.46 91.9478 234.469 92.125 233.438 92.125V95.125C234.822 95.125 236.165 94.8855 237.458 94.4066L236.417 91.5934ZM233.438 92.125C230.401 92.125 228.513 91.3035 227.4 89.9746L225.1 91.9004C226.987 94.1549 229.891 95.125 233.438 95.125V92.125ZM227.424 90.0037C226.238 88.5127 225.562 86.3991 225.562 83.5H222.562C222.562 86.8509 223.346 89.6957 225.076 91.8713L227.424 90.0037ZM225.562 83.5V82.375H222.562V83.5H225.562ZM222.721 81.7042C222.039 83.0683 221.254 84.4369 220.366 85.8101L222.884 87.4399C223.829 85.9797 224.67 84.5151 225.404 83.0458L222.721 81.7042ZM220.366 85.8101C219.515 87.1254 218.531 88.3007 217.415 89.3397L219.46 91.5353C220.76 90.3243 221.902 88.958 222.884 87.4399L220.366 85.8101ZM217.396 89.3577C216.35 90.3667 215.153 91.1909 213.797 91.8311L215.078 94.5439C216.722 93.7674 218.192 92.7583 219.479 91.5173L217.396 89.3577ZM213.782 91.8382C212.553 92.4351 211.136 92.75 209.5 92.75V95.75C211.531 95.75 213.405 95.3566 215.093 94.5368L213.782 91.8382ZM209.5 92.75C206.905 92.75 204.687 92.2475 202.806 91.2886L201.444 93.9614C203.813 95.1692 206.512 95.75 209.5 95.75V92.75ZM202.838 91.3051C200.935 90.2775 199.348 88.9341 198.062 87.2703L195.688 89.1047C197.236 91.1076 199.149 92.7225 201.412 93.9449L202.838 91.3051ZM198.072 87.2833C196.771 85.5612 195.763 83.5556 195.06 81.2498L192.19 82.1252C192.987 84.736 194.146 87.0638 195.678 89.0917L198.072 87.2833ZM195.066 81.2722C194.399 78.9566 194.062 76.5136 194.062 73.9375H191.062C191.062 76.7781 191.434 79.5018 192.184 82.1028L195.066 81.2722ZM194.062 73.9375C194.062 70.5946 194.58 67.2215 195.622 63.8138L192.753 62.9362C191.629 66.6118 191.062 70.2804 191.062 73.9375H194.062ZM195.622 63.8138C196.659 60.4234 198.17 57.3654 200.152 54.6302L197.723 52.8698C195.538 55.8846 193.883 59.2432 192.753 62.9362L195.622 63.8138ZM200.152 54.6302C202.115 51.9213 204.524 49.7287 207.386 48.0424L205.864 45.4576C202.643 47.3546 199.927 49.8287 197.723 52.8698L200.152 54.6302ZM207.399 48.0347C210.184 46.3564 213.39 45.5 217.062 45.5V42.5C212.902 42.5 209.15 43.4769 205.851 45.4653L207.399 48.0347ZM217.062 45.5C219.227 45.5 221.325 46.02 223.372 47.0816L224.753 44.4184C222.3 43.1466 219.731 42.5 217.062 42.5V45.5ZM225.562 45.75V7.375H222.562V45.75H225.562ZM224.553 8.79257L236.115 4.79257L235.135 1.95743L223.572 5.95743L224.553 8.79257ZM234.125 3.375V83.8125H237.125V3.375H234.125ZM234.125 83.8125C234.125 84.8804 234.368 85.8935 234.862 86.8268L237.513 85.4232C237.257 84.9398 237.125 84.4112 237.125 83.8125H234.125ZM234.916 86.92C235.656 88.1044 236.854 88.625 238.188 88.625V85.625C237.687 85.625 237.553 85.479 237.459 85.33L234.916 86.92ZM238.188 88.625C239.578 88.625 240.819 88.0681 241.878 87.1149L239.872 84.8851C239.264 85.4319 238.713 85.625 238.188 85.625V88.625ZM241.908 87.0875C242.812 86.229 243.564 85.3431 244.143 84.426L241.607 82.824C241.186 83.4903 240.605 84.1877 239.842 84.9125L241.908 87.0875ZM241.78 84.6497L243.592 86.5872L245.783 84.5378L243.97 82.6003L241.78 84.6497ZM225.562 66.75V53.4375H222.562V66.75H225.562ZM225.123 52.3768C224.055 51.309 222.847 50.4258 221.502 49.7302L220.123 52.3948C221.195 52.9492 222.153 53.6494 223.002 54.4982L225.123 52.3768ZM221.521 49.7403C220.121 48.9904 218.583 48.625 216.938 48.625V51.625C218.125 51.625 219.171 51.8846 220.104 52.3847L221.521 49.7403ZM216.938 48.625C214.192 48.625 211.772 49.3761 209.765 50.9425L211.61 53.3075C213.02 52.2072 214.766 51.625 216.938 51.625V48.625ZM209.765 50.9425C207.885 52.4092 206.358 54.2381 205.181 56.4106L207.819 57.8394C208.809 56.0119 210.073 54.5074 211.61 53.3075L209.765 50.9425ZM205.181 56.4106C204.026 58.5423 203.187 60.8445 202.658 63.3107L205.592 63.9393C206.063 61.7388 206.807 59.7077 207.819 57.8394L205.181 56.4106ZM202.659 63.3052C202.14 65.6844 201.875 67.9384 201.875 70.0625H204.875C204.875 68.1866 205.11 66.1489 205.591 63.9448L202.659 63.3052ZM201.875 70.0625C201.875 71.7349 202.029 73.6008 202.328 75.654L205.297 75.221C205.013 73.2742 204.875 71.5568 204.875 70.0625H201.875ZM202.334 75.6892C202.686 77.7591 203.26 79.7275 204.059 81.5909L206.816 80.4091C206.115 78.7725 205.606 77.0326 205.291 75.1858L202.334 75.6892ZM204.077 81.6307C204.939 83.4926 206.064 85.1065 207.457 86.4535L209.543 84.2965C208.436 83.2269 207.519 81.924 206.798 80.3693L204.077 81.6307ZM207.495 86.4882C209.091 87.9298 211.065 88.625 213.312 88.625V85.625C211.727 85.625 210.493 85.1535 209.505 84.2618L207.495 86.4882ZM213.312 88.625C215.075 88.625 216.682 88.2421 218.077 87.4154L216.548 84.8346C215.693 85.3412 214.634 85.625 213.312 85.625V88.625ZM218.091 87.4072C219.424 86.5981 220.551 85.5682 221.461 84.3225L219.039 82.5525C218.366 83.4734 217.535 84.2353 216.534 84.8428L218.091 87.4072ZM221.477 84.3007C222.354 83.0538 223.06 81.6584 223.602 80.1242L220.773 79.1258C220.315 80.4249 219.729 81.5712 219.023 82.5743L221.477 84.3007ZM223.606 80.1115C224.133 78.5761 224.528 77.0167 224.792 75.4341L221.833 74.9409C221.597 76.3583 221.242 77.7573 220.769 79.1385L223.606 80.1115ZM224.785 75.4738C225.089 73.9106 225.285 72.3643 225.373 70.8356L222.377 70.6644C222.298 72.0523 222.119 73.4644 221.84 74.9012L224.785 75.4738ZM225.37 70.8746C225.497 69.3443 225.562 67.9681 225.562 66.75H222.562C222.562 67.8652 222.503 69.1557 222.38 70.6254L225.37 70.8746ZM301.312 85.5625L302.674 86.1911L303.081 85.3095L302.444 84.5773L301.312 85.5625ZM299.438 88.625L298.256 87.7005L299.438 88.625ZM296.812 91.1875L295.913 89.9875L295.9 89.9967L295.888 90.0062L296.812 91.1875ZM293.625 93L294.146 94.4066L294.16 94.4015L294.173 94.3961L293.625 93ZM282.938 90.9375L281.751 91.8547L281.762 91.8697L281.774 91.8844L282.938 90.9375ZM280.812 82.375H282.312L279.487 81.6732L280.812 82.375ZM278.25 86.625L277.008 85.7845L276.999 85.7972L276.991 85.8101L278.25 86.625ZM275.062 90.4375L274.04 89.3397L274.031 89.3486L274.021 89.3577L275.062 90.4375ZM253.812 88.5L252.636 89.4304L252.641 89.4371L252.647 89.4438L253.812 88.5ZM251.438 63.875L250.024 63.3715L250.021 63.3809L251.438 63.875ZM256.812 54.1875L255.655 53.2339L255.646 53.2442L256.812 54.1875ZM265.125 47.3125L265.843 48.6294L265.849 48.6261L265.125 47.3125ZM285.188 46.5L284.549 47.8572L284.573 47.8684L284.597 47.8787L285.188 46.5ZM289.125 49L288.126 50.1189L288.136 50.1276L288.146 50.1361L289.125 49ZM292.062 52.8125L292.647 54.1941L294.119 53.5715L293.404 52.1417L292.062 52.8125ZM282.75 56.75L281.482 57.551L282.162 58.6274L283.334 58.1316L282.75 56.75ZM281 54.5L279.848 55.4603L279.877 55.4951L279.908 55.528L281 54.5ZM278.875 52.5625L277.997 53.7785L278.012 53.7897L278.028 53.8005L278.875 52.5625ZM267.875 52.75L266.952 51.5675L266.945 51.5731L266.938 51.5787L267.875 52.75ZM263.562 57.6875L262.286 56.8998L262.28 56.9098L262.274 56.9198L263.562 57.6875ZM260.375 75.3125L258.891 75.529L258.893 75.5466L258.896 75.5642L260.375 75.3125ZM262.062 80.875L260.696 81.4933L262.062 80.875ZM265.188 85.3125L264.163 86.4079L265.188 85.3125ZM274.062 86.125L274.827 87.4154L274.845 87.4051L274.862 87.3943L274.062 86.125ZM276.938 83.4375L278.149 84.3225L278.156 84.3117L278.164 84.3007L276.938 83.4375ZM278.875 79.625L277.469 79.1027L277.465 79.1142L277.461 79.1258L278.875 79.625ZM280.062 75.1875L278.59 74.9012L278.586 74.921L278.583 74.9409L280.062 75.1875ZM280.625 70.75L279.13 70.6254L279.129 70.6449L279.127 70.6644L280.625 70.75ZM280.812 62.4375L280.315 61.0224L279.312 61.3749V62.4375H280.812ZM292.188 58.4375H293.688V56.32L291.69 57.0224L292.188 58.4375ZM292.812 86.125L291.52 86.8855L291.53 86.9029L291.541 86.92L292.812 86.125ZM297.562 86L298.566 87.1149L298.569 87.1123L297.562 86ZM299.625 83.625L300.756 82.6398L299.433 81.1204L298.357 82.824L299.625 83.625ZM299.951 84.9339C299.5 85.9099 298.936 86.8317 298.256 87.7005L300.619 89.5495C301.439 88.5016 302.125 87.3818 302.674 86.1911L299.951 84.9339ZM298.256 87.7005C297.59 88.5523 296.81 89.3144 295.913 89.9875L297.712 92.3875C298.815 91.5606 299.785 90.6144 300.619 89.5495L298.256 87.7005ZM295.888 90.0062C295.047 90.6641 294.112 91.197 293.077 91.6039L294.173 94.3961C295.471 93.8863 296.661 93.2109 297.737 92.3688L295.888 90.0062ZM293.104 91.5934C292.153 91.9457 291.142 92.125 290.062 92.125V95.125C291.483 95.125 292.847 94.8876 294.146 94.4066L293.104 91.5934ZM290.062 92.125C287.022 92.125 285.168 91.3022 284.101 89.9906L281.774 91.8844C283.623 94.1561 286.52 95.125 290.062 95.125V92.125ZM284.124 90.0203C282.971 88.528 282.312 86.408 282.312 83.5H279.312C279.312 86.842 280.07 89.6803 281.751 91.8547L284.124 90.0203ZM282.312 83.5V82.375H279.312V83.5H282.312ZM279.487 81.6732C278.764 83.0391 277.938 84.4096 277.008 85.7845L279.492 87.4655C280.479 86.0071 281.361 84.5442 282.138 83.0768L279.487 81.6732ZM276.991 85.8101C276.14 87.1254 275.156 88.3007 274.04 89.3397L276.085 91.5353C277.385 90.3243 278.527 88.958 279.509 87.4399L276.991 85.8101ZM274.021 89.3577C272.968 90.3731 271.786 91.1989 270.47 91.8382L271.78 94.5368C273.381 93.7595 274.823 92.7519 276.104 91.5173L274.021 89.3577ZM270.47 91.8382C269.236 92.4373 267.839 92.75 266.25 92.75V95.75C268.245 95.75 270.097 95.3543 271.78 94.5368L270.47 91.8382ZM266.25 92.75C263.737 92.75 261.577 92.2677 259.733 91.3459L258.392 94.0291C260.715 95.1907 263.347 95.75 266.25 95.75V92.75ZM259.733 91.3459C257.835 90.3966 256.256 89.134 254.978 87.5562L252.647 89.4438C254.203 91.366 256.124 92.8951 258.392 94.0291L259.733 91.3459ZM254.989 87.5696C253.7 85.9394 252.721 84.0296 252.062 81.8213L249.188 82.6787C249.946 85.2204 251.092 87.4773 252.636 89.4304L254.989 87.5696ZM252.062 81.8213C251.399 79.5956 251.062 77.22 251.062 74.6875H248.062C248.062 77.4884 248.435 80.1544 249.188 82.6787L252.062 81.8213ZM251.062 74.6875C251.062 71.2385 251.657 67.8011 252.854 64.3691L250.021 63.3809C248.718 67.1156 248.062 70.8865 248.062 74.6875H251.062ZM252.85 64.3785C254.089 60.904 255.799 57.8253 257.979 55.1308L255.646 53.2442C253.242 56.2164 251.37 59.596 250.025 63.3715L252.85 64.3785ZM257.97 55.1411C260.182 52.4552 262.804 50.2871 265.843 48.6293L264.407 45.9957C261.029 47.8379 258.109 50.2532 255.655 53.2339L257.97 55.1411ZM265.849 48.6261C268.863 46.9648 272.215 46.125 275.938 46.125V43.125C271.743 43.125 267.887 44.0768 264.401 45.9989L265.849 48.6261ZM275.938 46.125C277.428 46.125 278.921 46.2622 280.416 46.5377L280.959 43.5873C279.288 43.2794 277.614 43.125 275.938 43.125V46.125ZM280.416 46.5377C281.876 46.8066 283.252 47.247 284.549 47.8572L285.826 45.1428C284.29 44.4196 282.666 43.9017 280.959 43.5873L280.416 46.5377ZM284.597 47.8787C285.908 48.4407 287.082 49.1869 288.126 50.1189L290.124 47.8811C288.834 46.7297 287.384 45.8093 285.778 45.1213L284.597 47.8787ZM288.146 50.1361C289.196 51.0416 290.055 52.1516 290.721 53.4833L293.404 52.1417C292.57 50.4734 291.471 49.0417 290.104 47.8639L288.146 50.1361ZM291.478 51.4309L282.166 55.3684L283.334 58.1316L292.647 54.1941L291.478 51.4309ZM284.018 55.949C283.465 55.0731 282.822 54.2475 282.092 53.472L279.908 55.528C280.511 56.1692 281.035 56.8435 281.482 57.551L284.018 55.949ZM282.152 53.5397C281.44 52.6854 280.63 51.9456 279.722 51.3245L278.028 53.8005C278.704 54.2627 279.31 54.8146 279.848 55.4603L282.152 53.5397ZM279.753 51.3465C278.896 50.7272 277.967 50.2276 276.971 49.8483L275.904 52.6517C276.658 52.939 277.354 53.3144 277.997 53.7785L279.753 51.3465ZM276.971 49.8483C275.922 49.4484 274.824 49.25 273.688 49.25V52.25C274.468 52.25 275.203 52.3849 275.904 52.6517L276.971 49.8483ZM273.688 49.25C271.186 49.25 268.924 50.0285 266.952 51.5675L268.798 53.9325C270.243 52.8049 271.855 52.25 273.688 52.25V49.25ZM266.938 51.5787C265.127 53.0276 263.578 54.8066 262.286 56.8998L264.839 58.4752C265.964 56.6518 267.29 55.1391 268.812 53.9213L266.938 51.5787ZM262.274 56.9198C261.04 58.9914 260.092 61.1956 259.432 63.529L262.318 64.346C262.908 62.2628 263.752 60.3003 264.851 58.4552L262.274 56.9198ZM259.432 63.529C258.779 65.835 258.438 67.9753 258.438 69.9375H261.438C261.438 68.3163 261.721 66.4567 262.318 64.346L259.432 63.529ZM258.438 69.9375C258.438 71.6099 258.591 73.4758 258.891 75.529L261.859 75.096C261.575 73.1492 261.438 71.4318 261.438 69.9375H258.438ZM258.896 75.5642C259.25 77.6447 259.85 79.6224 260.696 81.4933L263.429 80.2567C262.692 78.6276 262.166 76.897 261.854 75.0608L258.896 75.5642ZM260.696 81.4933C261.562 83.4077 262.715 85.0534 264.163 86.4079L266.212 84.2171C265.077 83.155 264.146 81.8423 263.429 80.2567L260.696 81.4933ZM264.163 86.4079C265.763 87.905 267.768 88.625 270.062 88.625V85.625C268.44 85.625 267.195 85.1367 266.212 84.2171L264.163 86.4079ZM270.062 88.625C271.825 88.625 273.432 88.2421 274.827 87.4154L273.298 84.8346C272.443 85.3412 271.384 85.625 270.062 85.625V88.625ZM274.862 87.3943C276.149 86.5841 277.246 85.5574 278.149 84.3225L275.726 82.5525C275.045 83.4843 274.226 84.2492 273.263 84.8557L274.862 87.3943ZM278.164 84.3007C279.042 83.0538 279.748 81.6584 280.289 80.1242L277.461 79.1258C277.002 80.4249 276.417 81.5712 275.711 82.5743L278.164 84.3007ZM280.281 80.1473C280.855 78.6017 281.276 77.0303 281.542 75.4341L278.583 74.9409C278.349 76.3447 277.978 77.7317 277.469 79.1027L280.281 80.1473ZM281.535 75.4738C281.839 73.9106 282.035 72.3643 282.123 70.8356L279.127 70.6644C279.048 72.0523 278.869 73.4644 278.59 74.9012L281.535 75.4738ZM282.12 70.8746C282.247 69.3443 282.312 67.9681 282.312 66.75H279.312C279.312 67.8652 279.253 69.1557 279.13 70.6254L282.12 70.8746ZM282.312 66.75V62.4375H279.312V66.75H282.312ZM281.31 63.8526L292.685 59.8526L291.69 57.0224L280.315 61.0224L281.31 63.8526ZM290.688 58.4375V83.8125H293.688V58.4375H290.688ZM290.688 83.8125C290.688 84.9093 290.965 85.9433 291.52 86.8855L294.105 85.3645C293.826 84.89 293.688 84.3823 293.688 83.8125H290.688ZM291.541 86.92C292.266 88.0811 293.427 88.625 294.75 88.625V85.625C294.323 85.625 294.192 85.5022 294.084 85.33L291.541 86.92ZM294.75 88.625C296.192 88.625 297.48 88.0923 298.566 87.1149L296.559 84.8851C295.978 85.4077 295.391 85.625 294.75 85.625V88.625ZM298.569 87.1123C299.52 86.2518 300.304 85.3582 300.893 84.426L298.357 82.824C297.946 83.4752 297.355 84.1649 296.556 84.8877L298.569 87.1123ZM298.494 84.6102L300.181 86.5477L302.444 84.5773L300.756 82.6398L298.494 84.6102ZM397.25 75.3125L398.527 76.0997L399.268 74.8974L398.112 74.0852L397.25 75.3125ZM384.688 95.6875L384.427 97.1647L385.43 97.3417L385.964 96.4747L384.688 95.6875ZM376.812 94.375L376.579 95.8566L376.582 95.8573L376.812 94.375ZM369.75 93.3125L369.962 91.8276L369.951 91.826L369.939 91.8245L369.75 93.3125ZM354.875 91.1875L354.592 92.6605L354.612 92.6644L354.632 92.6677L354.875 91.1875ZM351.625 90.75L351.446 92.2393L351.478 92.2431L351.51 92.2456L351.625 90.75ZM341.812 91.5L341.389 90.0609L341.381 90.0633L341.812 91.5ZM335.812 94.4375L334.719 95.4645L335.606 96.4084L336.669 95.6689L335.812 94.4375ZM333.875 92.375L332.899 91.2361L331.707 92.2578L332.782 93.402L333.875 92.375ZM337.688 86.375L336.285 85.843L336.28 85.8567L336.275 85.8705L337.688 86.375ZM350.5 13L349.422 11.9575L349.421 11.9577L350.5 13ZM363.25 4.1875L363.849 5.56256L363.855 5.56013L363.25 4.1875ZM389 3.5625L388.132 4.78576L388.141 4.79223L388.15 4.79856L389 3.5625ZM392.188 7.125L390.869 7.84064L392.188 7.125ZM392.312 17.9375L393.703 18.5003L392.312 17.9375ZM389.375 22.9375L388.198 22.008L388.19 22.0177L388.183 22.0275L389.375 22.9375ZM385.125 27.375L386.091 28.5224L386.094 28.5201L385.125 27.375ZM369.562 35.5L368.18 36.0821L368.682 37.2743L369.935 36.953L369.562 35.5ZM368.562 33.125L367.802 31.8321L366.671 32.4975L367.18 33.7071L368.562 33.125ZM372.938 30.25L372.075 29.0227L372.067 29.0283L372.059 29.034L372.938 30.25ZM377.125 26.6875L378.203 27.7306L378.211 27.7221L378.219 27.7134L377.125 26.6875ZM380.188 22.375L381.522 23.0602L381.526 23.053L381.529 23.0458L380.188 22.375ZM380.562 13.25L379.186 13.8464L379.19 13.855L379.194 13.8636L380.562 13.25ZM378.312 10.0625L377.277 11.1475L377.289 11.159L377.301 11.1702L378.312 10.0625ZM375.062 8L374.489 9.38603L374.497 9.38942L374.505 9.39272L375.062 8ZM351.25 75.125L352.681 75.5748L352.685 75.5633L351.25 75.125ZM349.375 79.375L348.075 78.6266L348.071 78.6331L348.068 78.6396L349.375 79.375ZM343.375 86.5L342.399 85.3611L344.25 87.718L343.375 86.5ZM347.25 83.875L348.053 85.1422L348.067 85.1328L348.082 85.1231L347.25 83.875ZM351.062 81.75L350.461 80.3758L350.453 80.3793L350.445 80.3829L351.062 81.75ZM355.188 80.4375L355.49 81.9067L355.511 81.9024L355.531 81.8976L355.188 80.4375ZM370.188 80.9375L369.947 82.4182L369.97 82.4218L369.992 82.4247L370.188 80.9375ZM384.75 81.25L385.197 82.6817L385.211 82.6775L385.224 82.673L384.75 81.25ZM392 76.875L393.016 77.9789L393.017 77.9772L392 76.875ZM394.938 73.6875L395.8 72.4602L394.631 71.6386L393.753 72.7666L394.938 73.6875ZM395.973 74.5253L383.411 94.9003L385.964 96.4747L398.527 76.0997L395.973 74.5253ZM384.948 94.2103C382.106 93.7088 379.471 93.2696 377.043 92.8927L376.582 95.8573C378.987 96.2304 381.602 96.6662 384.427 97.1647L384.948 94.2103ZM377.046 92.8934C374.664 92.5172 372.303 92.162 369.962 91.8276L369.538 94.7974C371.864 95.1297 374.211 95.4828 376.579 95.8566L377.046 92.8934ZM369.939 91.8245C367.653 91.5335 365.304 91.2217 362.892 90.8891L362.483 93.8609C364.904 94.1949 367.263 94.5081 369.561 94.8005L369.939 91.8245ZM362.892 90.8891C360.49 90.5577 357.899 90.1639 355.118 89.7073L354.632 92.6677C357.434 93.1278 360.051 93.5256 362.483 93.8609L362.892 90.8891ZM355.158 89.7145C354.02 89.4956 352.881 89.3422 351.74 89.2544L351.51 92.2456C352.536 92.3245 353.563 92.4627 354.592 92.6605L355.158 89.7145ZM351.804 89.2607C350.701 89.1283 349.579 89.0625 348.438 89.0625V92.0625C349.463 92.0625 350.466 92.1217 351.446 92.2393L351.804 89.2607ZM348.438 89.0625C346.008 89.0625 343.656 89.3941 341.389 90.061L342.236 92.939C344.219 92.3559 346.284 92.0625 348.438 92.0625V89.0625ZM341.381 90.0633C339.136 90.737 336.993 91.7889 334.956 93.2061L336.669 95.6689C338.465 94.4194 340.323 93.513 342.244 92.9367L341.381 90.0633ZM336.906 93.4105L334.968 91.348L332.782 93.402L334.719 95.4645L336.906 93.4105ZM334.851 93.5139C335.855 92.6534 336.708 91.6316 337.411 90.4592L334.839 88.9158C334.292 89.8267 333.645 90.5966 332.899 91.2361L334.851 93.5139ZM337.411 90.4592C338.088 89.3312 338.651 88.1373 339.1 86.8795L336.275 85.8705C335.891 86.946 335.412 87.9605 334.839 88.9158L337.411 90.4592ZM339.09 86.907C339.581 85.6137 339.94 84.3127 340.166 83.0049L337.209 82.4951C337.018 83.604 336.711 84.7196 336.285 85.843L339.09 86.907ZM340.166 83.0049C340.387 81.7231 340.5 80.4915 340.5 79.3125H337.5C337.5 80.3001 337.405 81.3602 337.209 82.4951L340.166 83.0049ZM340.5 79.3125V42.4375H337.5V79.3125H340.5ZM340.5 42.4375C340.5 36.783 341.489 31.5382 343.453 26.688L340.672 25.562C338.553 30.7951 337.5 36.4253 337.5 42.4375H340.5ZM343.453 26.688C345.426 21.8147 348.136 17.6049 351.579 14.0423L349.421 11.9577C345.697 15.8118 342.782 20.3519 340.672 25.562L343.453 26.688ZM351.578 14.0425C355.064 10.4365 359.151 7.61069 363.849 5.56254L362.651 2.81246C357.599 5.01431 353.186 8.06354 349.422 11.9575L351.578 14.0425ZM363.855 5.56013C368.569 3.48263 373.674 2.4375 379.188 2.4375V-0.5625C373.284 -0.5625 367.764 0.559037 362.645 2.81487L363.855 5.56013ZM379.188 2.4375C380.906 2.4375 382.557 2.63268 384.145 3.01978L384.855 0.105219C383.026 -0.341009 381.135 -0.5625 379.188 -0.5625V2.4375ZM384.145 3.01978C385.689 3.39648 387.011 3.99025 388.132 4.78576L389.868 2.33924C388.406 1.30141 386.728 0.561855 384.855 0.105219L384.145 3.01978ZM388.15 4.79856C389.283 5.57764 390.187 6.58481 390.869 7.84064L393.506 6.40936C392.604 4.74853 391.383 3.38069 389.85 2.32644L388.15 4.79856ZM390.869 7.84064C391.513 9.02614 391.875 10.5566 391.875 12.5H394.875C394.875 10.1934 394.446 8.14052 393.506 6.40936L390.869 7.84064ZM391.875 12.5C391.875 14.1807 391.559 15.8023 390.922 17.3747L393.703 18.5003C394.483 16.5727 394.875 14.5693 394.875 12.5H391.875ZM390.922 17.3747C390.271 18.9843 389.366 20.5286 388.198 22.008L390.552 23.867C391.884 22.1797 392.938 20.3907 393.703 18.5003L390.922 17.3747ZM388.183 22.0275C387.044 23.5189 385.704 24.9202 384.156 26.2299L386.094 28.5201C387.796 27.0798 389.289 25.5227 390.567 23.8475L388.183 22.0275ZM384.159 26.2276C382.631 27.5143 381.023 28.6798 379.335 29.7246L380.915 32.2754C382.727 31.1535 384.452 29.9023 386.091 28.5224L384.159 26.2276ZM379.335 29.7246C377.653 30.7659 375.936 31.6443 374.182 32.3617L375.318 35.1383C377.231 34.3557 379.097 33.4007 380.915 32.2754L379.335 29.7246ZM374.182 32.3617C372.401 33.0902 370.738 33.6501 369.19 34.047L369.935 36.953C371.637 36.5165 373.432 35.9098 375.318 35.1383L374.182 32.3617ZM370.945 34.9179L369.945 32.5429L367.18 33.7071L368.18 36.0821L370.945 34.9179ZM369.323 34.4179C370.785 33.5581 372.282 32.5735 373.816 31.466L372.059 29.034C370.593 30.0932 369.174 31.0253 367.802 31.8321L369.323 34.4179ZM373.8 31.4773C375.415 30.3421 376.884 29.0935 378.203 27.7306L376.047 25.6444C374.866 26.8648 373.543 27.9912 372.075 29.0227L373.8 31.4773ZM378.219 27.7134C379.56 26.2838 380.663 24.7327 381.522 23.0602L378.853 21.6898C378.129 23.1007 377.19 24.4245 376.031 25.6616L378.219 27.7134ZM381.529 23.0458C382.429 21.2467 382.875 19.3076 382.875 17.25H379.875C379.875 18.859 379.53 20.3367 378.846 21.7042L381.529 23.0458ZM382.875 17.25C382.875 15.6018 382.568 14.0565 381.931 12.6364L379.194 13.8636C379.64 14.8601 379.875 15.9816 379.875 17.25H382.875ZM381.939 12.6536C381.317 11.2192 380.446 9.97963 379.324 8.95477L377.301 11.1702C378.095 11.8954 378.724 12.7808 379.186 13.8464L381.939 12.6536ZM379.348 8.97747C378.285 7.96222 377.036 7.17388 375.62 6.60728L374.505 9.39272C375.589 9.82612 376.507 10.4128 377.277 11.1475L379.348 8.97747ZM375.636 6.61397C374.231 6.03265 372.722 5.75 371.125 5.75V8.75C372.361 8.75 373.477 8.96735 374.489 9.38603L375.636 6.61397ZM371.125 5.75C367.781 5.75 364.771 6.46526 362.141 7.94202L363.609 10.558C365.729 9.36808 368.219 8.75 371.125 8.75V5.75ZM362.141 7.94202C359.585 9.37689 357.426 11.2655 355.675 13.6L358.075 15.4C359.574 13.4012 361.415 11.7898 363.609 10.558L362.141 7.94202ZM355.675 13.6C353.939 15.9151 352.633 18.5327 351.752 21.44L354.623 22.31C355.409 19.7173 356.561 17.4182 358.075 15.4L355.675 13.6ZM351.752 21.44C350.877 24.329 350.438 27.2672 350.438 30.25H353.438C353.438 27.5662 353.832 24.921 354.623 22.31L351.752 21.44ZM350.438 30.25V70.5H353.438V30.25H350.438ZM350.438 70.5C350.438 71.9362 350.23 73.3301 349.815 74.6867L352.685 75.5633C353.187 73.9199 353.438 72.2304 353.438 70.5H350.438ZM349.819 74.6753C349.395 76.0257 348.814 77.3425 348.075 78.6266L350.675 80.1234C351.519 78.6575 352.189 77.141 352.681 75.5747L349.819 74.6753ZM348.068 78.6396C347.369 79.8825 346.531 81.072 345.551 82.2081L347.824 84.1669C348.928 82.8863 349.881 81.5342 350.682 80.1104L348.068 78.6396ZM345.551 82.2081C344.557 83.3615 343.506 84.412 342.399 85.3611L344.351 87.6389C345.577 86.588 346.735 85.4302 347.824 84.1669L345.551 82.2081ZM344.25 87.718C345.563 86.775 346.83 85.9166 348.053 85.1422L346.447 82.6078C345.17 83.4167 343.854 84.3084 342.5 85.282L344.25 87.718ZM348.082 85.1231C349.268 84.3325 350.467 83.6647 351.68 83.1171L350.445 80.3829C349.074 81.002 347.732 81.7508 346.418 82.6269L348.082 85.1231ZM351.664 83.1242C352.902 82.5826 354.177 82.1771 355.49 81.9067L354.885 78.9683C353.365 79.2812 351.89 79.7507 350.461 80.3758L351.664 83.1242ZM355.531 81.8976C356.818 81.5949 358.263 81.4375 359.875 81.4375V78.4375C358.07 78.4375 356.391 78.6134 354.844 78.9774L355.531 81.8976ZM359.875 81.4375C361.911 81.4375 363.699 81.5394 365.247 81.7378L365.628 78.7622C363.926 78.5439 362.006 78.4375 359.875 78.4375V81.4375ZM365.247 81.7378C366.856 81.9441 368.423 82.1709 369.947 82.4182L370.428 79.4568C368.869 79.2041 367.269 78.9725 365.628 78.7622L365.247 81.7378ZM369.992 82.4247C371.577 82.6332 373.183 82.8418 374.809 83.0503L375.191 80.0747C373.567 79.8665 371.965 79.6584 370.383 79.4503L369.992 82.4247ZM374.809 83.0503C376.512 83.2686 378.432 83.375 380.562 83.375V80.375C378.527 80.375 376.738 80.2731 375.191 80.0747L374.809 83.0503ZM380.562 83.375C382.166 83.375 383.713 83.1456 385.197 82.6817L384.303 79.8183C383.12 80.1877 381.876 80.375 380.562 80.375V83.375ZM385.224 82.673C386.708 82.1784 388.106 81.5248 389.416 80.712L387.834 78.163C386.727 78.8502 385.542 79.4049 384.276 79.827L385.224 82.673ZM389.416 80.712C390.704 79.9125 391.904 79.0013 393.016 77.9789L390.984 75.7711C390.012 76.6654 388.963 77.4625 387.834 78.163L389.416 80.712ZM393.017 77.9772C394.159 76.9234 395.194 75.8005 396.122 74.6084L393.753 72.7666C392.931 73.8245 392.008 74.8266 390.983 75.7728L393.017 77.9772ZM394.075 74.9148L396.388 76.5398L398.112 74.0852L395.8 72.4602L394.075 74.9148ZM454.812 85.5625L456.174 86.1911L456.581 85.3095L455.944 84.5773L454.812 85.5625ZM452.938 88.625L451.756 87.7005L452.938 88.625ZM450.312 91.1875L449.413 89.9875L449.4 89.9967L449.388 90.0062L450.312 91.1875ZM447.125 93L447.646 94.4066L447.66 94.4015L447.673 94.3961L447.125 93ZM436.438 90.9375L435.251 91.8547L435.262 91.8697L435.274 91.8844L436.438 90.9375ZM434.312 82.375H435.812L432.987 81.6732L434.312 82.375ZM431.75 86.625L430.508 85.7845L430.499 85.7972L430.491 85.8101L431.75 86.625ZM428.562 90.4375L427.54 89.3397L427.531 89.3486L427.521 89.3577L428.562 90.4375ZM407.312 88.5L406.136 89.4304L406.141 89.4371L406.147 89.4438L407.312 88.5ZM404.938 63.875L403.524 63.3715L403.521 63.3809L404.938 63.875ZM410.312 54.1875L409.155 53.2339L409.146 53.2442L410.312 54.1875ZM418.625 47.3125L419.343 48.6294L419.349 48.6261L418.625 47.3125ZM438.688 46.5L438.049 47.8572L438.073 47.8684L438.097 47.8787L438.688 46.5ZM442.625 49L441.626 50.1189L441.636 50.1276L441.646 50.1361L442.625 49ZM445.562 52.8125L446.147 54.1941L447.619 53.5715L446.904 52.1417L445.562 52.8125ZM436.25 56.75L434.982 57.551L435.662 58.6274L436.834 58.1316L436.25 56.75ZM434.5 54.5L433.348 55.4603L433.377 55.4951L433.408 55.528L434.5 54.5ZM432.375 52.5625L431.497 53.7785L431.512 53.7897L431.528 53.8005L432.375 52.5625ZM421.375 52.75L420.452 51.5675L420.445 51.5731L420.438 51.5787L421.375 52.75ZM417.062 57.6875L415.786 56.8998L415.78 56.9098L415.774 56.9198L417.062 57.6875ZM413.875 75.3125L412.391 75.529L412.393 75.5466L412.396 75.5642L413.875 75.3125ZM415.562 80.875L414.196 81.4933L415.562 80.875ZM418.688 85.3125L417.663 86.4079L418.688 85.3125ZM427.562 86.125L428.327 87.4154L428.345 87.4051L428.362 87.3943L427.562 86.125ZM430.438 83.4375L431.649 84.3225L431.656 84.3117L431.664 84.3007L430.438 83.4375ZM432.375 79.625L430.969 79.1027L430.965 79.1142L430.961 79.1258L432.375 79.625ZM433.562 75.1875L432.09 74.9012L432.086 74.921L432.083 74.9409L433.562 75.1875ZM434.125 70.75L432.63 70.6254L432.629 70.6449L432.627 70.6644L434.125 70.75ZM434.312 62.4375L433.815 61.0224L432.812 61.3749V62.4375H434.312ZM445.688 58.4375H447.188V56.32L445.19 57.0224L445.688 58.4375ZM446.312 86.125L445.02 86.8855L445.03 86.9029L445.041 86.92L446.312 86.125ZM451.062 86L452.066 87.1149L452.069 87.1123L451.062 86ZM453.125 83.625L454.256 82.6398L452.933 81.1204L451.857 82.824L453.125 83.625ZM453.451 84.9339C453 85.9099 452.436 86.8317 451.756 87.7005L454.119 89.5495C454.939 88.5016 455.625 87.3818 456.174 86.1911L453.451 84.9339ZM451.756 87.7005C451.09 88.5523 450.31 89.3144 449.413 89.9875L451.212 92.3875C452.315 91.5606 453.285 90.6144 454.119 89.5495L451.756 87.7005ZM449.388 90.0062C448.547 90.6641 447.612 91.197 446.577 91.6039L447.673 94.3961C448.971 93.8863 450.161 93.2109 451.237 92.3688L449.388 90.0062ZM446.604 91.5934C445.653 91.9457 444.642 92.125 443.562 92.125V95.125C444.983 95.125 446.347 94.8876 447.646 94.4066L446.604 91.5934ZM443.562 92.125C440.522 92.125 438.668 91.3022 437.601 89.9906L435.274 91.8844C437.123 94.1561 440.02 95.125 443.562 95.125V92.125ZM437.624 90.0203C436.471 88.528 435.812 86.408 435.812 83.5H432.812C432.812 86.842 433.57 89.6803 435.251 91.8547L437.624 90.0203ZM435.812 83.5V82.375H432.812V83.5H435.812ZM432.987 81.6732C432.264 83.0391 431.438 84.4096 430.508 85.7845L432.992 87.4655C433.979 86.0071 434.861 84.5442 435.638 83.0768L432.987 81.6732ZM430.491 85.8101C429.64 87.1254 428.656 88.3007 427.54 89.3397L429.585 91.5353C430.885 90.3243 432.027 88.958 433.009 87.4399L430.491 85.8101ZM427.521 89.3577C426.468 90.3731 425.286 91.1989 423.97 91.8382L425.28 94.5368C426.881 93.7595 428.323 92.7519 429.604 91.5173L427.521 89.3577ZM423.97 91.8382C422.736 92.4373 421.339 92.75 419.75 92.75V95.75C421.745 95.75 423.597 95.3543 425.28 94.5368L423.97 91.8382ZM419.75 92.75C417.237 92.75 415.077 92.2677 413.233 91.3459L411.892 94.0291C414.215 95.1907 416.847 95.75 419.75 95.75V92.75ZM413.233 91.3459C411.335 90.3966 409.756 89.134 408.478 87.5562L406.147 89.4438C407.703 91.366 409.624 92.8951 411.892 94.0291L413.233 91.3459ZM408.489 87.5696C407.2 85.9394 406.221 84.0296 405.562 81.8213L402.688 82.6787C403.446 85.2204 404.592 87.4773 406.136 89.4304L408.489 87.5696ZM405.562 81.8213C404.899 79.5956 404.562 77.22 404.562 74.6875H401.562C401.562 77.4884 401.935 80.1544 402.688 82.6787L405.562 81.8213ZM404.562 74.6875C404.562 71.2385 405.157 67.8011 406.354 64.3691L403.521 63.3809C402.218 67.1156 401.562 70.8865 401.562 74.6875H404.562ZM406.35 64.3785C407.589 60.904 409.299 57.8253 411.479 55.1308L409.146 53.2442C406.742 56.2164 404.87 59.596 403.525 63.3715L406.35 64.3785ZM411.47 55.1411C413.682 52.4552 416.304 50.2871 419.343 48.6293L417.907 45.9957C414.529 47.8379 411.609 50.2532 409.155 53.2339L411.47 55.1411ZM419.349 48.6261C422.363 46.9648 425.715 46.125 429.438 46.125V43.125C425.243 43.125 421.387 44.0768 417.901 45.9989L419.349 48.6261ZM429.438 46.125C430.928 46.125 432.421 46.2622 433.916 46.5377L434.459 43.5873C432.788 43.2794 431.114 43.125 429.438 43.125V46.125ZM433.916 46.5377C435.376 46.8066 436.752 47.247 438.049 47.8572L439.326 45.1428C437.79 44.4196 436.166 43.9017 434.459 43.5873L433.916 46.5377ZM438.097 47.8787C439.408 48.4407 440.582 49.1869 441.626 50.1189L443.624 47.8811C442.334 46.7297 440.884 45.8093 439.278 45.1213L438.097 47.8787ZM441.646 50.1361C442.696 51.0416 443.555 52.1516 444.221 53.4833L446.904 52.1417C446.07 50.4734 444.971 49.0417 443.604 47.8639L441.646 50.1361ZM444.978 51.4309L435.666 55.3684L436.834 58.1316L446.147 54.1941L444.978 51.4309ZM437.518 55.949C436.965 55.0731 436.322 54.2475 435.592 53.472L433.408 55.528C434.011 56.1692 434.535 56.8435 434.982 57.551L437.518 55.949ZM435.652 53.5397C434.94 52.6854 434.13 51.9456 433.222 51.3245L431.528 53.8005C432.204 54.2627 432.81 54.8146 433.348 55.4603L435.652 53.5397ZM433.253 51.3465C432.396 50.7272 431.467 50.2276 430.471 49.8483L429.404 52.6517C430.158 52.939 430.854 53.3144 431.497 53.7785L433.253 51.3465ZM430.471 49.8483C429.422 49.4484 428.324 49.25 427.188 49.25V52.25C427.968 52.25 428.703 52.3849 429.404 52.6517L430.471 49.8483ZM427.188 49.25C424.686 49.25 422.424 50.0285 420.452 51.5675L422.298 53.9325C423.743 52.8049 425.355 52.25 427.188 52.25V49.25ZM420.438 51.5787C418.627 53.0276 417.078 54.8066 415.786 56.8998L418.339 58.4752C419.464 56.6518 420.79 55.1391 422.312 53.9213L420.438 51.5787ZM415.774 56.9198C414.54 58.9914 413.592 61.1956 412.932 63.529L415.818 64.346C416.408 62.2628 417.252 60.3003 418.351 58.4552L415.774 56.9198ZM412.932 63.529C412.279 65.835 411.938 67.9753 411.938 69.9375H414.938C414.938 68.3163 415.221 66.4567 415.818 64.346L412.932 63.529ZM411.938 69.9375C411.938 71.6099 412.091 73.4758 412.391 75.529L415.359 75.096C415.075 73.1492 414.938 71.4318 414.938 69.9375H411.938ZM412.396 75.5642C412.75 77.6447 413.35 79.6224 414.196 81.4933L416.929 80.2567C416.192 78.6276 415.666 76.897 415.354 75.0608L412.396 75.5642ZM414.196 81.4933C415.062 83.4077 416.215 85.0534 417.663 86.4079L419.712 84.2171C418.577 83.155 417.646 81.8423 416.929 80.2567L414.196 81.4933ZM417.663 86.4079C419.263 87.905 421.268 88.625 423.562 88.625V85.625C421.94 85.625 420.695 85.1367 419.712 84.2171L417.663 86.4079ZM423.562 88.625C425.325 88.625 426.932 88.2421 428.327 87.4154L426.798 84.8346C425.943 85.3412 424.884 85.625 423.562 85.625V88.625ZM428.362 87.3943C429.649 86.5841 430.746 85.5574 431.649 84.3225L429.226 82.5525C428.545 83.4843 427.726 84.2492 426.763 84.8557L428.362 87.3943ZM431.664 84.3007C432.542 83.0538 433.248 81.6584 433.789 80.1242L430.961 79.1258C430.502 80.4249 429.917 81.5712 429.211 82.5743L431.664 84.3007ZM433.781 80.1473C434.355 78.6017 434.776 77.0303 435.042 75.4341L432.083 74.9409C431.849 76.3447 431.478 77.7317 430.969 79.1027L433.781 80.1473ZM435.035 75.4738C435.339 73.9106 435.535 72.3643 435.623 70.8356L432.627 70.6644C432.548 72.0523 432.369 73.4644 432.09 74.9012L435.035 75.4738ZM435.62 70.8746C435.747 69.3443 435.812 67.9681 435.812 66.75H432.812C432.812 67.8652 432.753 69.1557 432.63 70.6254L435.62 70.8746ZM435.812 66.75V62.4375H432.812V66.75H435.812ZM434.81 63.8526L446.185 59.8526L445.19 57.0224L433.815 61.0224L434.81 63.8526ZM444.188 58.4375V83.8125H447.188V58.4375H444.188ZM444.188 83.8125C444.188 84.9093 444.465 85.9433 445.02 86.8855L447.605 85.3645C447.326 84.89 447.188 84.3823 447.188 83.8125H444.188ZM445.041 86.92C445.766 88.0811 446.927 88.625 448.25 88.625V85.625C447.823 85.625 447.692 85.5022 447.584 85.33L445.041 86.92ZM448.25 88.625C449.692 88.625 450.98 88.0923 452.066 87.1149L450.059 84.8851C449.478 85.4077 448.891 85.625 448.25 85.625V88.625ZM452.069 87.1123C453.02 86.2518 453.804 85.3582 454.393 84.426L451.857 82.824C451.446 83.4752 450.855 84.1649 450.056 84.8877L452.069 87.1123ZM451.994 84.6102L453.681 86.5477L455.944 84.5773L454.256 82.6398L451.994 84.6102ZM521.188 56.75L519.72 56.441L519.717 56.456L519.714 56.4712L521.188 56.75ZM519.875 60.875L518.524 60.2229L518.52 60.2321L518.515 60.2414L519.875 60.875ZM505.312 92.125L506.629 92.8433L506.652 92.8016L506.672 92.7586L505.312 92.125ZM504.25 93L503.855 91.5529L503.773 91.5754L503.693 91.6073L504.25 93ZM500.062 91.75L498.619 92.1586L498.633 92.2071L498.65 92.2545L500.062 91.75ZM490.312 57.3125L491.756 56.9039L490.238 51.5439L488.859 56.9412L490.312 57.3125ZM481.625 91.3125L482.982 91.9512L483.043 91.8221L483.078 91.6838L481.625 91.3125ZM480.188 92.9375L479.416 91.6513L479.396 91.6632L479.376 91.6757L480.188 92.9375ZM476.625 93.1875L476.004 94.553L476.026 94.5629L476.048 94.5721L476.625 93.1875ZM475.75 92L477.217 91.6857L477.202 91.6179L477.181 91.5517L475.75 92ZM464.75 56.875L466.181 56.4267L466.177 56.4136L466.173 56.4007L464.75 56.875ZM464.062 55.3125L462.684 55.9034L462.71 55.9648L462.742 56.0236L464.062 55.3125ZM463.062 53.75L461.863 54.65L461.905 54.7066L461.953 54.759L463.062 53.75ZM461.75 52.5625L460.868 53.7756L460.929 53.8201L460.994 53.8582L461.75 52.5625ZM457.812 52.75L456.998 51.4906L456.98 51.502L456.963 51.5139L457.812 52.75ZM456 54.1875L454.811 55.1021L455.812 56.4028L457.017 55.2897L456 54.1875ZM454.75 52.5625L453.428 51.8542L452.97 52.7087L453.561 53.4771L454.75 52.5625ZM457.125 49.3125L458.208 50.3504L458.219 50.3393L458.229 50.3281L457.125 49.3125ZM464 44.6875L463.512 43.269L463.505 43.2714L463.498 43.2739L464 44.6875ZM471 45L470.034 46.1474L471 45ZM474.312 50.5L472.879 50.9411L472.886 50.966L472.895 50.9907L474.312 50.5ZM475.25 53.4375L473.808 53.8496L473.814 53.8717L473.821 53.8936L475.25 53.4375ZM478.938 65.25L477.503 65.6879L477.505 65.6948L477.507 65.7017L478.938 65.25ZM482.625 77L481.193 77.4465L482.793 82.5776L484.081 77.3595L482.625 77ZM488.812 51.9375L490.269 52.297L490.369 51.8901L490.244 51.4901L488.812 51.9375ZM487.25 46.9375L486.776 45.5145L485.379 45.98L485.818 47.3849L487.25 46.9375ZM497.75 43.4375L499.194 43.0307L498.767 41.5173L497.276 42.0145L497.75 43.4375ZM508 79.8125L506.556 80.2193L507.694 84.2569L509.374 80.4134L508 79.8125ZM513.875 66.375L515.249 66.9759L515.259 66.9541L515.268 66.9321L513.875 66.375ZM514.5 64L515.978 64.257L515.98 64.2466L514.5 64ZM512.812 55.0625L511.582 55.9208L511.589 55.9303L511.596 55.9397L512.812 55.0625ZM507.75 50.75L506.534 49.8723L505.51 51.2915L507.069 52.0864L507.75 50.75ZM514.875 40.875L515.546 39.5334L514.405 38.9629L513.659 39.9973L514.875 40.875ZM520 45.625L518.681 46.3394L518.69 46.3559L518.699 46.3722L520 45.625ZM520.188 52.4375C520.188 53.6032 520.037 54.935 519.72 56.441L522.655 57.059C523.005 55.3983 523.188 53.8552 523.188 52.4375H520.188ZM519.714 56.4712C519.442 57.9048 519.042 59.151 518.524 60.2229L521.226 61.5271C521.875 60.1823 522.349 58.6785 522.661 57.0288L519.714 56.4712ZM518.515 60.2414L503.953 91.4914L506.672 92.7586L521.235 61.5086L518.515 60.2414ZM503.996 91.4067C503.95 91.4905 503.916 91.5214 503.906 91.5296C503.898 91.5358 503.887 91.5441 503.855 91.5529L504.645 94.4471C505.538 94.2036 506.205 93.6207 506.629 92.8433L503.996 91.4067ZM503.693 91.6073C503.473 91.6954 503.206 91.75 502.875 91.75V94.75C503.544 94.75 504.194 94.6379 504.807 94.3927L503.693 91.6073ZM502.875 91.75C502.475 91.75 502.095 91.6794 501.726 91.5375L500.649 94.3375C501.363 94.6123 502.109 94.75 502.875 94.75V91.75ZM501.726 91.5375C501.622 91.4977 501.548 91.4487 501.475 91.2455L498.65 92.2545C498.994 93.218 499.669 93.9607 500.649 94.3375L501.726 91.5375ZM501.506 91.3414L491.756 56.9039L488.869 57.7211L498.619 92.1586L501.506 91.3414ZM488.859 56.9412L480.172 90.9412L483.078 91.6838L491.766 57.6838L488.859 56.9412ZM480.268 90.6738C480.051 91.1339 479.767 91.4408 479.416 91.6513L480.959 94.2237C481.858 93.6842 482.532 92.9077 482.982 91.9512L480.268 90.6738ZM479.376 91.6757C479.055 91.8825 478.674 92 478.188 92V95C479.201 95 480.154 94.7425 480.999 94.1993L479.376 91.6757ZM478.188 92C477.844 92 477.519 91.935 477.202 91.8029L476.048 94.5721C476.731 94.8566 477.448 95 478.188 95V92ZM477.246 91.822C477.241 91.8196 477.245 91.821 477.253 91.828C477.262 91.8351 477.268 91.8419 477.27 91.8446C477.274 91.8505 477.244 91.8128 477.217 91.6857L474.283 92.3143C474.487 93.2651 475.03 94.1103 476.004 94.553L477.246 91.822ZM477.181 91.5517L466.181 56.4267L463.319 57.3233L474.319 92.4483L477.181 91.5517ZM466.173 56.4007C465.975 55.8067 465.709 55.2066 465.383 54.6014L462.742 56.0236C462.999 56.5017 463.192 56.9433 463.327 57.3493L466.173 56.4007ZM465.441 54.7216C465.127 53.9888 464.704 53.3258 464.172 52.741L461.953 54.759C462.254 55.0908 462.498 55.4696 462.684 55.9034L465.441 54.7216ZM464.262 52.85C463.777 52.2027 463.192 51.6672 462.506 51.2668L460.994 53.8582C461.308 54.0411 461.598 54.2973 461.863 54.65L464.262 52.85ZM462.632 51.3494C461.891 50.8104 461.033 50.5625 460.125 50.5625V53.5625C460.467 53.5625 460.692 53.6479 460.868 53.7756L462.632 51.3494ZM460.125 50.5625C458.999 50.5625 457.946 50.8773 456.998 51.4906L458.627 54.0094C459.096 53.706 459.585 53.5625 460.125 53.5625V50.5625ZM456.963 51.5139C456.243 52.009 455.582 52.5323 454.983 53.0853L457.017 55.2897C457.502 54.8427 458.049 54.4077 458.662 53.9861L456.963 51.5139ZM457.189 53.2729L455.939 51.6479L453.561 53.4771L454.811 55.1021L457.189 53.2729ZM456.072 53.2708C456.63 52.2298 457.34 51.2565 458.208 50.3504L456.042 48.2746C454.994 49.3685 454.12 50.5618 453.428 51.8542L456.072 53.2708ZM458.229 50.3281C459.109 49.3711 460.084 48.5302 461.155 47.8037L459.47 45.3213C458.208 46.1781 457.057 47.1705 456.021 48.2969L458.229 50.3281ZM461.155 47.8037C462.219 47.0817 463.334 46.5155 464.502 46.1011L463.498 43.2739C462.083 43.7761 460.74 44.4599 459.47 45.3213L461.155 47.8037ZM464.488 46.106C465.668 45.7002 466.858 45.5 468.062 45.5V42.5C466.517 42.5 464.999 42.7581 463.512 43.269L464.488 46.106ZM468.062 45.5C468.923 45.5 469.547 45.7375 470.034 46.1474L471.966 43.8526C470.87 42.9292 469.535 42.5 468.062 42.5V45.5ZM470.034 46.1474C470.68 46.6918 471.235 47.3628 471.694 48.1756L474.306 46.6994C473.682 45.5955 472.903 44.6416 471.966 43.8526L470.034 46.1474ZM471.694 48.1756C472.181 49.0371 472.576 49.958 472.879 50.9411L475.746 50.0589C475.382 48.8753 474.902 47.7546 474.306 46.6994L471.694 48.1756ZM472.895 50.9907C473.263 52.0544 473.567 53.0067 473.808 53.8496L476.692 53.0254C476.433 52.1183 476.112 51.1123 475.73 50.0093L472.895 50.9907ZM473.821 53.8936C475.069 57.8042 476.296 61.7356 477.503 65.6879L480.372 64.8121C479.162 60.8477 477.931 56.9042 476.679 52.9814L473.821 53.8936ZM477.507 65.7017C478.757 69.6583 479.985 73.5733 481.193 77.4465L484.057 76.5535C482.848 72.6767 481.618 68.7583 480.368 64.7983L477.507 65.7017ZM484.081 77.3595L490.269 52.297L487.356 51.578L481.169 76.6405L484.081 77.3595ZM490.244 51.4901L488.682 46.4901L485.818 47.3849L487.381 52.3849L490.244 51.4901ZM487.724 48.3605L498.224 44.8605L497.276 42.0145L486.776 45.5145L487.724 48.3605ZM496.306 43.8443L506.556 80.2193L509.444 79.4057L499.194 43.0307L496.306 43.8443ZM509.374 80.4134L515.249 66.9759L512.501 65.7741L506.626 79.2116L509.374 80.4134ZM515.268 66.9321C515.569 66.178 515.8 65.2769 515.978 64.257L513.022 63.743C512.866 64.6397 512.681 65.322 512.482 65.8179L515.268 66.9321ZM515.98 64.2466C516.154 63.2024 516.25 62.28 516.25 61.5H513.25C513.25 62.0533 513.18 62.7976 513.02 63.7534L515.98 64.2466ZM516.25 61.5C516.25 58.7284 515.529 56.2654 514.029 54.1853L511.596 55.9397C512.679 57.443 513.25 59.2716 513.25 61.5H516.25ZM514.043 54.2042C512.639 52.1924 510.755 50.5983 508.431 49.4136L507.069 52.0864C508.995 53.0683 510.486 54.3493 511.582 55.9208L514.043 54.2042ZM508.966 51.6277L516.091 41.7527L513.659 39.9973L506.534 49.8723L508.966 51.6277ZM514.204 42.2166C516.304 43.2666 517.765 44.6484 518.681 46.3394L521.319 44.9106C520.068 42.6016 518.113 40.8167 515.546 39.5334L514.204 42.2166ZM518.699 46.3722C519.676 48.0721 520.188 50.0781 520.188 52.4375H523.188C523.188 49.6303 522.574 47.0946 521.301 44.8778L518.699 46.3722ZM580.062 85.5625L581.424 86.1911L581.831 85.3095L581.194 84.5773L580.062 85.5625ZM578.188 88.625L577.006 87.7005L578.188 88.625ZM575.562 91.1875L574.663 89.9875L574.65 89.9967L574.638 90.0062L575.562 91.1875ZM572.375 93L572.896 94.4066L572.91 94.4015L572.923 94.3961L572.375 93ZM561.688 90.9375L560.501 91.8547L560.512 91.8697L560.524 91.8844L561.688 90.9375ZM559.562 82.375H561.062L558.237 81.6732L559.562 82.375ZM557 86.625L555.758 85.7845L555.749 85.7972L555.741 85.8101L557 86.625ZM553.812 90.4375L552.79 89.3397L552.781 89.3486L552.771 89.3577L553.812 90.4375ZM532.562 88.5L531.386 89.4304L531.391 89.4371L531.397 89.4438L532.562 88.5ZM530.188 63.875L528.774 63.3715L528.771 63.3809L530.188 63.875ZM535.562 54.1875L534.405 53.2339L534.396 53.2442L535.562 54.1875ZM543.875 47.3125L544.593 48.6294L544.599 48.6261L543.875 47.3125ZM563.938 46.5L563.299 47.8572L563.323 47.8684L563.347 47.8787L563.938 46.5ZM567.875 49L566.876 50.1189L566.886 50.1276L566.896 50.1361L567.875 49ZM570.812 52.8125L571.397 54.1941L572.869 53.5715L572.154 52.1417L570.812 52.8125ZM561.5 56.75L560.232 57.551L560.912 58.6274L562.084 58.1316L561.5 56.75ZM559.75 54.5L558.598 55.4603L558.627 55.4951L558.658 55.528L559.75 54.5ZM557.625 52.5625L556.747 53.7785L556.762 53.7897L556.778 53.8005L557.625 52.5625ZM546.625 52.75L545.702 51.5675L545.695 51.5731L545.688 51.5787L546.625 52.75ZM542.312 57.6875L541.036 56.8998L541.03 56.9098L541.024 56.9198L542.312 57.6875ZM539.125 75.3125L537.641 75.529L537.643 75.5466L537.646 75.5642L539.125 75.3125ZM540.812 80.875L539.446 81.4933L540.812 80.875ZM543.938 85.3125L542.913 86.4079L543.938 85.3125ZM552.812 86.125L553.577 87.4154L553.595 87.4051L553.612 87.3943L552.812 86.125ZM555.688 83.4375L556.899 84.3225L556.906 84.3117L556.914 84.3007L555.688 83.4375ZM557.625 79.625L556.219 79.1027L556.215 79.1142L556.211 79.1258L557.625 79.625ZM558.812 75.1875L557.34 74.9012L557.336 74.921L557.333 74.9409L558.812 75.1875ZM559.375 70.75L557.88 70.6254L557.879 70.6449L557.877 70.6644L559.375 70.75ZM559.562 62.4375L559.065 61.0224L558.062 61.3749V62.4375H559.562ZM570.938 58.4375H572.438V56.32L570.44 57.0224L570.938 58.4375ZM571.562 86.125L570.27 86.8855L570.28 86.9029L570.291 86.92L571.562 86.125ZM576.312 86L577.316 87.1149L577.319 87.1123L576.312 86ZM578.375 83.625L579.506 82.6398L578.183 81.1204L577.107 82.824L578.375 83.625ZM578.701 84.9339C578.25 85.9099 577.686 86.8317 577.006 87.7005L579.369 89.5495C580.189 88.5016 580.875 87.3818 581.424 86.1911L578.701 84.9339ZM577.006 87.7005C576.34 88.5523 575.56 89.3144 574.663 89.9875L576.462 92.3875C577.565 91.5606 578.535 90.6144 579.369 89.5495L577.006 87.7005ZM574.638 90.0062C573.797 90.6641 572.862 91.197 571.827 91.6039L572.923 94.3961C574.221 93.8863 575.411 93.2109 576.487 92.3688L574.638 90.0062ZM571.854 91.5934C570.903 91.9457 569.892 92.125 568.812 92.125V95.125C570.233 95.125 571.597 94.8876 572.896 94.4066L571.854 91.5934ZM568.812 92.125C565.772 92.125 563.918 91.3022 562.851 89.9906L560.524 91.8844C562.373 94.1561 565.27 95.125 568.812 95.125V92.125ZM562.874 90.0203C561.721 88.528 561.062 86.408 561.062 83.5H558.062C558.062 86.842 558.82 89.6803 560.501 91.8547L562.874 90.0203ZM561.062 83.5V82.375H558.062V83.5H561.062ZM558.237 81.6732C557.514 83.0391 556.688 84.4096 555.758 85.7845L558.242 87.4655C559.229 86.0071 560.111 84.5442 560.888 83.0768L558.237 81.6732ZM555.741 85.8101C554.89 87.1254 553.906 88.3007 552.79 89.3397L554.835 91.5353C556.135 90.3243 557.277 88.958 558.259 87.4399L555.741 85.8101ZM552.771 89.3577C551.718 90.3731 550.536 91.1989 549.22 91.8382L550.53 94.5368C552.131 93.7595 553.573 92.7519 554.854 91.5173L552.771 89.3577ZM549.22 91.8382C547.986 92.4373 546.589 92.75 545 92.75V95.75C546.995 95.75 548.847 95.3543 550.53 94.5368L549.22 91.8382ZM545 92.75C542.487 92.75 540.327 92.2677 538.483 91.3459L537.142 94.0291C539.465 95.1907 542.097 95.75 545 95.75V92.75ZM538.483 91.3459C536.585 90.3966 535.006 89.134 533.728 87.5562L531.397 89.4438C532.953 91.366 534.874 92.8951 537.142 94.0291L538.483 91.3459ZM533.739 87.5696C532.45 85.9394 531.471 84.0296 530.812 81.8213L527.938 82.6787C528.696 85.2204 529.842 87.4773 531.386 89.4304L533.739 87.5696ZM530.812 81.8213C530.149 79.5956 529.812 77.22 529.812 74.6875H526.812C526.812 77.4884 527.185 80.1544 527.938 82.6787L530.812 81.8213ZM529.812 74.6875C529.812 71.2385 530.407 67.8011 531.604 64.3691L528.771 63.3809C527.468 67.1156 526.812 70.8865 526.812 74.6875H529.812ZM531.6 64.3785C532.839 60.904 534.549 57.8253 536.729 55.1308L534.396 53.2442C531.992 56.2164 530.12 59.596 528.775 63.3715L531.6 64.3785ZM536.72 55.1411C538.932 52.4552 541.554 50.2871 544.593 48.6293L543.157 45.9957C539.779 47.8379 536.859 50.2532 534.405 53.2339L536.72 55.1411ZM544.599 48.6261C547.613 46.9648 550.965 46.125 554.688 46.125V43.125C550.493 43.125 546.637 44.0768 543.151 45.9989L544.599 48.6261ZM554.688 46.125C556.178 46.125 557.671 46.2622 559.166 46.5377L559.709 43.5873C558.038 43.2794 556.364 43.125 554.688 43.125V46.125ZM559.166 46.5377C560.626 46.8066 562.002 47.247 563.299 47.8572L564.576 45.1428C563.04 44.4196 561.416 43.9017 559.709 43.5873L559.166 46.5377ZM563.347 47.8787C564.658 48.4407 565.832 49.1869 566.876 50.1189L568.874 47.8811C567.584 46.7297 566.134 45.8093 564.528 45.1213L563.347 47.8787ZM566.896 50.1361C567.946 51.0416 568.805 52.1516 569.471 53.4833L572.154 52.1417C571.32 50.4734 570.221 49.0417 568.854 47.8639L566.896 50.1361ZM570.228 51.4309L560.916 55.3684L562.084 58.1316L571.397 54.1941L570.228 51.4309ZM562.768 55.949C562.215 55.0731 561.572 54.2475 560.842 53.472L558.658 55.528C559.261 56.1692 559.785 56.8435 560.232 57.551L562.768 55.949ZM560.902 53.5397C560.19 52.6854 559.38 51.9456 558.472 51.3245L556.778 53.8005C557.454 54.2627 558.06 54.8146 558.598 55.4603L560.902 53.5397ZM558.503 51.3465C557.646 50.7272 556.717 50.2276 555.721 49.8483L554.654 52.6517C555.408 52.939 556.104 53.3144 556.747 53.7785L558.503 51.3465ZM555.721 49.8483C554.672 49.4484 553.574 49.25 552.438 49.25V52.25C553.218 52.25 553.953 52.3849 554.654 52.6517L555.721 49.8483ZM552.438 49.25C549.936 49.25 547.674 50.0285 545.702 51.5675L547.548 53.9325C548.993 52.8049 550.605 52.25 552.438 52.25V49.25ZM545.688 51.5787C543.877 53.0276 542.328 54.8066 541.036 56.8998L543.589 58.4752C544.714 56.6518 546.04 55.1391 547.562 53.9213L545.688 51.5787ZM541.024 56.9198C539.79 58.9914 538.842 61.1956 538.182 63.529L541.068 64.346C541.658 62.2628 542.502 60.3003 543.601 58.4552L541.024 56.9198ZM538.182 63.529C537.529 65.835 537.188 67.9753 537.188 69.9375H540.188C540.188 68.3163 540.471 66.4567 541.068 64.346L538.182 63.529ZM537.188 69.9375C537.188 71.6099 537.341 73.4758 537.641 75.529L540.609 75.096C540.325 73.1492 540.188 71.4318 540.188 69.9375H537.188ZM537.646 75.5642C538 77.6447 538.6 79.6224 539.446 81.4933L542.179 80.2567C541.442 78.6276 540.916 76.897 540.604 75.0608L537.646 75.5642ZM539.446 81.4933C540.312 83.4077 541.465 85.0534 542.913 86.4079L544.962 84.2171C543.827 83.155 542.896 81.8423 542.179 80.2567L539.446 81.4933ZM542.913 86.4079C544.513 87.905 546.518 88.625 548.812 88.625V85.625C547.19 85.625 545.945 85.1367 544.962 84.2171L542.913 86.4079ZM548.812 88.625C550.575 88.625 552.182 88.2421 553.577 87.4154L552.048 84.8346C551.193 85.3412 550.134 85.625 548.812 85.625V88.625ZM553.612 87.3943C554.899 86.5841 555.996 85.5574 556.899 84.3225L554.476 82.5525C553.795 83.4843 552.976 84.2492 552.013 84.8557L553.612 87.3943ZM556.914 84.3007C557.792 83.0538 558.498 81.6584 559.039 80.1242L556.211 79.1258C555.752 80.4249 555.167 81.5712 554.461 82.5743L556.914 84.3007ZM559.031 80.1473C559.605 78.6017 560.026 77.0303 560.292 75.4341L557.333 74.9409C557.099 76.3447 556.728 77.7317 556.219 79.1027L559.031 80.1473ZM560.285 75.4738C560.589 73.9106 560.785 72.3643 560.873 70.8356L557.877 70.6644C557.798 72.0523 557.619 73.4644 557.34 74.9012L560.285 75.4738ZM560.87 70.8746C560.997 69.3443 561.062 67.9681 561.062 66.75H558.062C558.062 67.8652 558.003 69.1557 557.88 70.6254L560.87 70.8746ZM561.062 66.75V62.4375H558.062V66.75H561.062ZM560.06 63.8526L571.435 59.8526L570.44 57.0224L559.065 61.0224L560.06 63.8526ZM569.438 58.4375V83.8125H572.438V58.4375H569.438ZM569.438 83.8125C569.438 84.9093 569.715 85.9433 570.27 86.8855L572.855 85.3645C572.576 84.89 572.438 84.3823 572.438 83.8125H569.438ZM570.291 86.92C571.016 88.0811 572.177 88.625 573.5 88.625V85.625C573.073 85.625 572.942 85.5022 572.834 85.33L570.291 86.92ZM573.5 88.625C574.942 88.625 576.23 88.0923 577.316 87.1149L575.309 84.8851C574.728 85.4077 574.141 85.625 573.5 85.625V88.625ZM577.319 87.1123C578.27 86.2518 579.054 85.3582 579.643 84.426L577.107 82.824C576.696 83.4752 576.105 84.1649 575.306 84.8877L577.319 87.1123ZM577.244 84.6102L578.931 86.5477L581.194 84.5773L579.506 82.6398L577.244 84.6102ZM608.688 85.6875L610.049 86.3161L610.464 85.4187L609.802 84.6841L608.688 85.6875ZM606.75 88.75L605.594 87.7947L605.581 87.8099L605.569 87.8255L606.75 88.75ZM601 93.0625L600.495 91.6499L600.465 91.661L600.434 91.6734L601 93.0625ZM590.375 91.0625L589.201 91.9963L589.213 92.011L589.225 92.0254L590.375 91.0625ZM588.188 7.375L587.695 5.95825L586.688 6.30859V7.375H588.188ZM599.688 3.375H601.188V1.26511L599.195 1.95825L599.688 3.375ZM600.25 86.25L598.924 86.9518L598.933 86.9687L598.943 86.9854L600.25 86.25ZM604.938 86.125L605.941 87.2399L605.944 87.2373L604.938 86.125ZM607 83.8125L608.115 82.8091L606.823 81.3737L605.752 82.9804L607 83.8125ZM607.326 85.0589C606.882 86.0201 606.306 86.9318 605.594 87.7947L607.906 89.7053C608.777 88.6516 609.493 87.5215 610.049 86.3161L607.326 85.0589ZM605.569 87.8255C604.894 88.6882 604.126 89.4561 603.263 90.1312L605.112 92.4938C606.166 91.6689 607.106 90.7285 607.931 89.6745L605.569 87.8255ZM603.263 90.1312C602.434 90.7803 601.513 91.2863 600.495 91.6499L601.505 94.4751C602.82 94.0053 604.025 93.3447 605.112 92.4938L603.263 90.1312ZM600.434 91.6734C599.488 92.0589 598.513 92.25 597.5 92.25V95.25C598.903 95.25 600.262 94.9828 601.566 94.4516L600.434 91.6734ZM597.5 92.25C594.512 92.25 592.641 91.4325 591.525 90.0996L589.225 92.0254C591.109 94.2758 593.988 95.25 597.5 95.25V92.25ZM591.549 90.1287C590.363 88.6377 589.688 86.5241 589.688 83.625H586.688C586.688 86.9759 587.471 89.8207 589.201 91.9963L591.549 90.1287ZM589.688 83.625V7.375H586.688V83.625H589.688ZM588.68 8.79175L600.18 4.79175L599.195 1.95825L587.695 5.95825L588.68 8.79175ZM598.188 3.375V83.9375H601.188V3.375H598.188ZM598.188 83.9375C598.188 85.0054 598.43 86.0185 598.924 86.9518L601.576 85.5482C601.32 85.0648 601.188 84.5362 601.188 83.9375H598.188ZM598.943 86.9854C599.654 88.2492 600.91 88.75 602.25 88.75V85.75C601.673 85.75 601.596 85.5841 601.557 85.5146L598.943 86.9854ZM602.25 88.75C603.641 88.75 604.882 88.1931 605.941 87.2399L603.934 85.0101C603.326 85.5569 602.776 85.75 602.25 85.75V88.75ZM605.944 87.2373C606.884 86.3866 607.662 85.5236 608.248 84.6446L605.752 82.9804C605.338 83.6014 604.741 84.2801 603.931 85.0127L605.944 87.2373ZM605.885 84.8159L607.573 86.6909L609.802 84.6841L608.115 82.8091L605.885 84.8159Z" fill="white"/>
</svg>
